<svg xmlns="http://www.w3.org/2000/svg" width="600" height="400" viewBox="0 0 600 400"><rect width="600" height="400" fill="#ffffff"/><line x1="159" y1="373" x2="361" y2="293" stroke="rgba(14,197,177,0.15)" stroke-width="1"/><line x1="228" y1="66" x2="36" y2="357" stroke="rgba(165,84,153,0.15)" stroke-width="1"/><line x1="36" y1="91" x2="22" y2="350" stroke="rgba(3,49,45,0.15)" stroke-width="1"/><line x1="384" y1="87" x2="53" y2="49" stroke="rgba(53,32,148,0.15)" stroke-width="1"/><line x1="343" y1="12" x2="454" y2="399" stroke="rgba(136,210,238,0.15)" stroke-width="1"/><line x1="228" y1="199" x2="176" y2="92" stroke="rgba(32,195,235,0.15)" stroke-width="1"/><line x1="532" y1="376" x2="41" y2="199" stroke="rgba(224,17,34,0.15)" stroke-width="1"/><line x1="465" y1="265" x2="174" y2="93" stroke="rgba(201,58,129,0.15)" stroke-width="1"/><g transform="translate(63.46,44.81) rotate(-4.847222946806765) translate(-32.208984375,8.44921875)"><path d="M6.08 0L3.88 0L0.07-12.45L2.25-12.45L4.23-5.26L4.97-2.59Q5.02-2.79 5.61-5.16L5.61-5.16L7.59-12.45L9.76-12.45L11.63-5.23L12.25-2.85L12.96-5.25L15.09-12.45L17.14-12.45L13.25 0L11.06 0L9.08-7.45L8.60-9.57L6.08 0ZM21.04-14.75L18.93-14.75L18.93-17.18L21.04-17.18L21.04-14.75ZM21.04 0L18.93 0L18.93-12.45L21.04-12.45L21.04 0ZM26.36 0L24.25 0L24.25-12.45L26.14-12.45L26.14-10.68Q27.52-12.73 30.11-12.73L30.11-12.73Q31.23-12.73 32.17-12.32Q33.12-11.92 33.59-11.26Q34.05-10.61 34.24-9.70L34.24-9.70Q34.36-9.12 34.36-7.65L34.36-7.65L34.36 0L32.25 0L32.25-7.57Q32.25-8.86 32.00-9.50Q31.76-10.14 31.13-10.52Q30.50-10.90 29.66-10.90L29.66-10.90Q28.31-10.90 27.33-10.04Q26.36-9.19 26.36-6.80L26.36-6.80L26.36 0ZM42.20-1.89L42.20-1.89L42.50-0.02Q41.61 0.16 40.91 0.16L40.91 0.16Q39.76 0.16 39.13-0.20Q38.50-0.56 38.24-1.15Q37.98-1.75 37.98-3.64L37.98-3.64L37.98-10.80L36.43-10.80L36.43-12.45L37.98-12.45L37.98-15.53L40.08-16.79L40.08-12.45L42.20-12.45L42.20-10.80L40.08-10.80L40.08-3.53Q40.08-2.63 40.19-2.37Q40.30-2.11 40.55-1.96Q40.80-1.80 41.27-1.80L41.27-1.80Q41.63-1.80 42.20-1.89ZM52.78-4.01L52.78-4.01L54.96-3.74Q54.45-1.83 53.05-0.77Q51.66 0.28 49.49 0.28L49.49 0.28Q46.76 0.28 45.16-1.40Q43.56-3.08 43.56-6.12L43.56-6.12Q43.56-9.26 45.18-10.99Q46.79-12.73 49.37-12.73L49.37-12.73Q51.87-12.73 53.45-11.03Q55.03-9.33 55.03-6.25L55.03-6.25Q55.03-6.06 55.02-5.68L55.02-5.68L45.74-5.68Q45.86-3.63 46.90-2.54Q47.94-1.45 49.50-1.45L49.50-1.45Q50.66-1.45 51.48-2.06Q52.30-2.67 52.78-4.01ZM45.86-7.42L45.86-7.42L52.80-7.42Q52.66-8.99 52.01-9.77L52.01-9.77Q51-10.99 49.39-10.99L49.39-10.99Q47.94-10.99 46.95-10.02Q45.96-9.05 45.86-7.42ZM59.70 0L57.59 0L57.59-12.45L59.48-12.45L59.48-10.56Q60.21-11.88 60.83-12.30Q61.44-12.73 62.18-12.73L62.18-12.73Q63.25-12.73 64.35-12.05L64.35-12.05L63.62-10.09Q62.85-10.55 62.07-10.55L62.07-10.55Q61.38-10.55 60.83-10.13Q60.28-9.71 60.05-8.98L60.05-8.98Q59.70-7.85 59.70-6.52L59.70-6.52L59.70 0Z" fill="rgb(39,39,39)"/></g><g transform="translate(178.95,37.04) rotate(-5.110783532566943) translate(-16.11328125,5.87109375)"><path d="M1.49 4.79L1.49 4.79L1.25 2.81Q1.95 3 2.46 3L2.46 3Q3.16 3 3.59 2.77Q4.01 2.53 4.28 2.11L4.28 2.11Q4.48 1.79 4.92 0.54L4.92 0.54Q4.98 0.36 5.11 0.02L5.11 0.02L0.39-12.45L2.66-12.45L5.25-5.24Q5.75-3.87 6.15-2.36L6.15-2.36Q6.52-3.81 7.02-5.19L7.02-5.19L9.68-12.45L11.79-12.45L7.05 0.21Q6.29 2.26 5.87 3.04L5.87 3.04Q5.31 4.08 4.58 4.56Q3.86 5.05 2.85 5.05L2.85 5.05Q2.24 5.05 1.49 4.79ZM22.10-4.01L22.10-4.01L24.28-3.74Q23.77-1.83 22.37-0.77Q20.98 0.28 18.81 0.28L18.81 0.28Q16.08 0.28 14.48-1.40Q12.88-3.08 12.88-6.12L12.88-6.12Q12.88-9.26 14.50-10.99Q16.11-12.73 18.69-12.73L18.69-12.73Q21.19-12.73 22.77-11.03Q24.35-9.33 24.35-6.25L24.35-6.25Q24.35-6.06 24.34-5.68L24.34-5.68L15.06-5.68Q15.18-3.63 16.22-2.54Q17.26-1.45 18.82-1.45L18.82-1.45Q19.98-1.45 20.80-2.06Q21.62-2.67 22.10-4.01ZM15.18-7.42L15.18-7.42L22.13-7.42Q21.98-8.99 21.33-9.77L21.33-9.77Q20.32-10.99 18.71-10.99L18.71-10.99Q17.26-10.99 16.27-10.02Q15.28-9.05 15.18-7.42ZM31.54-1.89L31.54-1.89L31.84-0.02Q30.95 0.16 30.25 0.16L30.25 0.16Q29.10 0.16 28.46-0.20Q27.83-0.56 27.57-1.15Q27.32-1.75 27.32-3.64L27.32-3.64L27.32-10.80L25.77-10.80L25.77-12.45L27.32-12.45L27.32-15.53L29.41-16.79L29.41-12.45L31.54-12.45L31.54-10.80L29.41-10.80L29.41-3.53Q29.41-2.63 29.53-2.37Q29.64-2.11 29.89-1.96Q30.14-1.80 30.61-1.80L30.61-1.80Q30.96-1.80 31.54-1.89Z" fill="rgb(74,74,74)"/></g><g transform="translate(302.56,42.2) rotate(1.982433971152649) translate(-12.38671875,8.44921875)"><path d="M6.19-1.89L6.19-1.89L6.49-0.02Q5.60 0.16 4.90 0.16L4.90 0.16Q3.75 0.16 3.12-0.20Q2.48-0.56 2.23-1.15Q1.97-1.75 1.97-3.64L1.97-3.64L1.97-10.80L0.42-10.80L0.42-12.45L1.97-12.45L1.97-15.53L4.07-16.79L4.07-12.45L6.19-12.45L6.19-10.80L4.07-10.80L4.07-3.53Q4.07-2.63 4.18-2.37Q4.29-2.11 4.54-1.96Q4.79-1.80 5.26-1.80L5.26-1.80Q5.61-1.80 6.19-1.89ZM10.37-14.75L8.26-14.75L8.26-17.18L10.37-17.18L10.37-14.75ZM10.37 0L8.26 0L8.26-12.45L10.37-12.45L10.37 0ZM22.10-4.01L22.10-4.01L24.28-3.74Q23.77-1.83 22.37-0.77Q20.98 0.28 18.81 0.28L18.81 0.28Q16.08 0.28 14.48-1.40Q12.88-3.08 12.88-6.12L12.88-6.12Q12.88-9.26 14.50-10.99Q16.11-12.73 18.69-12.73L18.69-12.73Q21.19-12.73 22.77-11.03Q24.35-9.33 24.35-6.25L24.35-6.25Q24.35-6.06 24.34-5.68L24.34-5.68L15.06-5.68Q15.18-3.63 16.22-2.54Q17.26-1.45 18.82-1.45L18.82-1.45Q19.98-1.45 20.80-2.06Q21.62-2.67 22.10-4.01ZM15.18-7.42L15.18-7.42L22.13-7.42Q21.98-8.99 21.33-9.77L21.33-9.77Q20.32-10.99 18.71-10.99L18.71-10.99Q17.26-10.99 16.27-10.02Q15.28-9.05 15.18-7.42Z" fill="rgb(62,62,62)"/></g><g transform="translate(421.09,42.19) rotate(0.435447924299426) translate(-30.9609375,6.064453125)"><path d="M3.69 0L1.58 0L1.58-12.45L3.47-12.45L3.47-10.70Q4.05-11.61 5.03-12.17Q6-12.73 7.24-12.73L7.24-12.73Q8.63-12.73 9.51-12.15Q10.39-11.58 10.76-10.55L10.76-10.55Q12.23-12.73 14.60-12.73L14.60-12.73Q16.45-12.73 17.45-11.70Q18.45-10.68 18.45-8.54L18.45-8.54L18.45 0L16.35 0L16.35-7.84Q16.35-9.11 16.14-9.66Q15.94-10.22 15.40-10.56Q14.86-10.90 14.13-10.90L14.13-10.90Q12.82-10.90 11.95-10.03Q11.09-9.15 11.09-7.23L11.09-7.23L11.09 0L8.98 0L8.98-8.09Q8.98-9.49 8.46-10.20Q7.95-10.90 6.77-10.90L6.77-10.90Q5.88-10.90 5.13-10.43Q4.37-9.96 4.03-9.06Q3.69-8.16 3.69-6.46L3.69-6.46L3.69 0ZM29.70-1.54L29.70-1.54Q28.52-0.54 27.44-0.13Q26.36 0.28 25.11 0.28L25.11 0.28Q23.06 0.28 21.96-0.72Q20.86-1.72 20.86-3.28L20.86-3.28Q20.86-4.20 21.28-4.95Q21.69-5.71 22.37-6.16Q23.04-6.62 23.88-6.86L23.88-6.86Q24.50-7.02 25.76-7.17L25.76-7.17Q28.31-7.48 29.52-7.90L29.52-7.90Q29.53-8.33 29.53-8.45L29.53-8.45Q29.53-9.74 28.93-10.27L28.93-10.27Q28.13-10.98 26.53-10.98L26.53-10.98Q25.04-10.98 24.33-10.46Q23.63-9.94 23.29-8.61L23.29-8.61L21.22-8.89Q21.50-10.22 22.15-11.03Q22.79-11.85 24.01-12.29Q25.23-12.73 26.84-12.73L26.84-12.73Q28.43-12.73 29.43-12.35Q30.42-11.98 30.89-11.41Q31.36-10.84 31.55-9.97L31.55-9.97Q31.65-9.43 31.65-8.03L31.65-8.03L31.65-5.21Q31.65-2.27 31.79-1.49Q31.92-0.71 32.32 0L32.32 0L30.12 0Q29.79-0.66 29.70-1.54ZM29.52-5.47L29.52-6.25Q28.37-5.78 26.07-5.45L26.07-5.45Q24.77-5.26 24.23-5.03Q23.70-4.79 23.40-4.34Q23.11-3.89 23.11-3.34L23.11-3.34Q23.11-2.50 23.75-1.93Q24.39-1.37 25.62-1.37L25.62-1.37Q26.84-1.37 27.79-1.90Q28.73-2.44 29.18-3.36L29.18-3.36Q29.52-4.08 29.52-5.47L29.52-5.47ZM37.02-14.73L34.91-14.73L34.91-17.18L37.02-17.18L37.02-14.73ZM32.24 4.83L32.24 4.83L32.64 3.04Q33.27 3.20 33.63 3.20L33.63 3.20Q34.28 3.20 34.59 2.77Q34.91 2.34 34.91 0.63L34.91 0.63L34.91-12.45L37.02-12.45L37.02 0.68Q37.02 2.98 36.42 3.88L36.42 3.88Q35.66 5.05 33.89 5.05L33.89 5.05Q33.04 5.05 32.24 4.83ZM39.47-6.22L39.47-6.22Q39.47-9.68 41.39-11.34L41.39-11.34Q43.00-12.73 45.30-12.73L45.30-12.73Q47.87-12.73 49.50-11.04Q51.13-9.36 51.13-6.40L51.13-6.40Q51.13-4.00 50.41-2.62Q49.69-1.24 48.31-0.48Q46.93 0.28 45.30 0.28L45.30 0.28Q42.69 0.28 41.08-1.39Q39.47-3.07 39.47-6.22ZM41.64-6.22L41.64-6.22Q41.64-3.83 42.68-2.64Q43.72-1.45 45.30-1.45L45.30-1.45Q46.88-1.45 47.92-2.65Q48.96-3.84 48.96-6.29L48.96-6.29Q48.96-8.60 47.91-9.79Q46.86-10.98 45.30-10.98L45.30-10.98Q43.72-10.98 42.68-9.80Q41.64-8.61 41.64-6.22ZM55.69 0L53.58 0L53.58-12.45L55.48-12.45L55.48-10.56Q56.20-11.88 56.82-12.30Q57.43-12.73 58.17-12.73L58.17-12.73Q59.24-12.73 60.34-12.05L60.34-12.05L59.61-10.09Q58.84-10.55 58.07-10.55L58.07-10.55Q57.38-10.55 56.82-10.13Q56.27-9.71 56.04-8.98L56.04-8.98Q55.69-7.85 55.69-6.52L55.69-6.52L55.69 0Z" fill="rgb(70,70,70)"/></g><g transform="translate(542.26,36.95) rotate(-1.6615776058793876) translate(-31.623046875,8.44921875)"><path d="M11.63 0L9.74 0L9.74-1.83Q8.29 0.28 5.79 0.28L5.79 0.28Q4.69 0.28 3.73-0.14Q2.78-0.56 2.31-1.20Q1.85-1.84 1.66-2.77L1.66-2.77Q1.54-3.39 1.54-4.73L1.54-4.73L1.54-12.45L3.64-12.45L3.64-5.54Q3.64-3.89 3.77-3.32L3.77-3.32Q3.97-2.48 4.62-2.01Q5.26-1.54 6.21-1.54L6.21-1.54Q7.16-1.54 7.99-2.02Q8.82-2.51 9.17-3.35Q9.52-4.18 9.52-5.78L9.52-5.78L9.52-12.45L11.63-12.45L11.63 0ZM17.04 0L14.93 0L14.93-12.45L16.83-12.45L16.83-10.68Q18.20-12.73 20.79-12.73L20.79-12.73Q21.91-12.73 22.86-12.32Q23.80-11.92 24.27-11.26Q24.74-10.61 24.93-9.70L24.93-9.70Q25.04-9.12 25.04-7.65L25.04-7.65L25.04 0L22.93 0L22.93-7.57Q22.93-8.86 22.69-9.50Q22.44-10.14 21.81-10.52Q21.19-10.90 20.34-10.90L20.34-10.90Q19.00-10.90 18.02-10.04Q17.04-9.19 17.04-6.80L17.04-6.80L17.04 0ZM38.31 0L36.35 0L36.35-1.57Q35.17 0.28 32.87 0.28L32.87 0.28Q31.38 0.28 30.13-0.54Q28.89-1.36 28.20-2.83Q27.52-4.30 27.52-6.21L27.52-6.21Q27.52-8.07 28.14-9.59Q28.76-11.11 30-11.92Q31.24-12.73 32.78-12.73L32.78-12.73Q33.90-12.73 34.78-12.25Q35.66-11.78 36.21-11.02L36.21-11.02L36.21-17.18L38.31-17.18L38.31 0ZM29.68-6.21L29.68-6.21Q29.68-3.82 30.69-2.64Q31.70-1.45 33.07-1.45L33.07-1.45Q34.45-1.45 35.42-2.58Q36.39-3.71 36.39-6.04L36.39-6.04Q36.39-8.59 35.40-9.79Q34.42-10.98 32.98-10.98L32.98-10.98Q31.57-10.98 30.63-9.83Q29.68-8.68 29.68-6.21ZM50.14-4.01L50.14-4.01L52.32-3.74Q51.81-1.83 50.41-0.77Q49.02 0.28 46.85 0.28L46.85 0.28Q44.12 0.28 42.52-1.40Q40.92-3.08 40.92-6.12L40.92-6.12Q40.92-9.26 42.54-10.99Q44.16-12.73 46.73-12.73L46.73-12.73Q49.23-12.73 50.81-11.03Q52.39-9.33 52.39-6.25L52.39-6.25Q52.39-6.06 52.38-5.68L52.38-5.68L43.10-5.68Q43.22-3.63 44.26-2.54Q45.30-1.45 46.86-1.45L46.86-1.45Q48.02-1.45 48.84-2.06Q49.66-2.67 50.14-4.01ZM43.22-7.42L43.22-7.42L50.17-7.42Q50.03-8.99 49.37-9.77L49.37-9.77Q48.36-10.99 46.76-10.99L46.76-10.99Q45.30-10.99 44.31-10.02Q43.32-9.05 43.22-7.42ZM57.06 0L54.95 0L54.95-12.45L56.85-12.45L56.85-10.56Q57.57-11.88 58.19-12.30Q58.80-12.73 59.54-12.73L59.54-12.73Q60.61-12.73 61.71-12.05L61.71-12.05L60.98-10.09Q60.21-10.55 59.44-10.55L59.44-10.55Q58.75-10.55 58.20-10.13Q57.64-9.71 57.41-8.98L57.41-8.98Q57.06-7.85 57.06-6.52L57.06-6.52L57.06 0Z" fill="rgb(11,11,11)"/></g><g transform="translate(59.46,120.02) rotate(-5.431639897840204) translate(-25.37109375,8.44921875)"><path d="M3.53-1.56L3.53 0L1.57 0L1.57-17.18L3.68-17.18L3.68-11.05Q5.02-12.73 7.09-12.73L7.09-12.73Q8.24-12.73 9.26-12.26Q10.29-11.80 10.95-10.96Q11.61-10.13 11.99-8.94Q12.36-7.76 12.36-6.41L12.36-6.41Q12.36-3.21 10.78-1.46Q9.20 0.28 6.98 0.28L6.98 0.28Q4.78 0.28 3.53-1.56L3.53-1.56ZM3.50-6.32L3.50-6.32Q3.50-4.08 4.11-3.08L4.11-3.08Q5.11-1.45 6.81-1.45L6.81-1.45Q8.19-1.45 9.20-2.65Q10.21-3.86 10.21-6.23L10.21-6.23Q10.21-8.67 9.24-9.83Q8.27-10.99 6.90-10.99L6.90-10.99Q5.52-10.99 4.51-9.79Q3.50-8.59 3.50-6.32ZM16.99 0L14.88 0L14.88-17.18L16.99-17.18L16.99 0ZM19.48-6.22L19.48-6.22Q19.48-9.68 21.40-11.34L21.40-11.34Q23.00-12.73 25.31-12.73L25.31-12.73Q27.88-12.73 29.51-11.04Q31.14-9.36 31.14-6.40L31.14-6.40Q31.14-4.00 30.42-2.62Q29.70-1.24 28.32-0.48Q26.94 0.28 25.31 0.28L25.31 0.28Q22.70 0.28 21.09-1.39Q19.48-3.07 19.48-6.22ZM21.64-6.22L21.64-6.22Q21.64-3.83 22.69-2.64Q23.73-1.45 25.31-1.45L25.31-1.45Q26.88-1.45 27.93-2.65Q28.97-3.84 28.97-6.29L28.97-6.29Q28.97-8.60 27.92-9.79Q26.87-10.98 25.31-10.98L25.31-10.98Q23.73-10.98 22.69-9.80Q21.64-8.61 21.64-6.22ZM38.11 0L35.91 0L32.10-12.45L34.28-12.45L36.26-5.26L37.00-2.59Q37.04-2.79 37.64-5.16L37.64-5.16L39.62-12.45L41.79-12.45L43.65-5.23L44.27-2.85L44.99-5.25L47.12-12.45L49.17-12.45L45.28 0L43.09 0L41.11-7.45L40.63-9.57L38.11 0Z" fill="rgb(92,92,92)"/></g><g transform="translate(180.66,118.75) rotate(-3.666929888837269) translate(-31.9921875,6.22265625)"><path d="M9.70-4.56L9.70-4.56L11.78-4.29Q11.44-2.14 10.04-0.93Q8.64 0.28 6.60 0.28L6.60 0.28Q4.04 0.28 2.49-1.39Q0.94-3.06 0.94-6.18L0.94-6.18Q0.94-8.19 1.61-9.70Q2.27-11.21 3.64-11.97Q5.00-12.73 6.61-12.73L6.61-12.73Q8.64-12.73 9.93-11.70Q11.21-10.68 11.58-8.79L11.58-8.79L9.53-8.47Q9.23-9.73 8.49-10.36Q7.75-10.99 6.69-10.99L6.69-10.99Q5.10-10.99 4.10-9.85Q3.11-8.71 3.11-6.23L3.11-6.23Q3.11-3.73 4.07-2.59Q5.03-1.45 6.57-1.45L6.57-1.45Q7.82-1.45 8.65-2.21Q9.48-2.98 9.70-4.56ZM21.70-1.54L21.70-1.54Q20.53-0.54 19.45-0.13Q18.36 0.28 17.12 0.28L17.12 0.28Q15.07 0.28 13.97-0.72Q12.87-1.72 12.87-3.28L12.87-3.28Q12.87-4.20 13.28-4.95Q13.70-5.71 14.37-6.16Q15.05-6.62 15.89-6.86L15.89-6.86Q16.51-7.02 17.77-7.17L17.77-7.17Q20.32-7.48 21.53-7.90L21.53-7.90Q21.54-8.33 21.54-8.45L21.54-8.45Q21.54-9.74 20.94-10.27L20.94-10.27Q20.13-10.98 18.54-10.98L18.54-10.98Q17.05-10.98 16.34-10.46Q15.63-9.94 15.29-8.61L15.29-8.61L13.23-8.89Q13.51-10.22 14.16-11.03Q14.80-11.85 16.02-12.29Q17.24-12.73 18.84-12.73L18.84-12.73Q20.44-12.73 21.43-12.35Q22.43-11.98 22.90-11.41Q23.37-10.84 23.55-9.97L23.55-9.97Q23.66-9.43 23.66-8.03L23.66-8.03L23.66-5.21Q23.66-2.27 23.79-1.49Q23.93-0.71 24.33 0L24.33 0L22.13 0Q21.80-0.66 21.70-1.54ZM21.53-5.47L21.53-6.25Q20.38-5.78 18.08-5.45L18.08-5.45Q16.78-5.26 16.24-5.03Q15.70-4.79 15.41-4.34Q15.12-3.89 15.12-3.34L15.12-3.34Q15.12-2.50 15.76-1.93Q16.39-1.37 17.63-1.37L17.63-1.37Q18.84-1.37 19.79-1.90Q20.74-2.44 21.19-3.36L21.19-3.36Q21.53-4.08 21.53-5.47L21.53-5.47ZM36.97 0L35.09 0L35.09-1.83Q33.63 0.28 31.14 0.28L31.14 0.28Q30.04 0.28 29.08-0.14Q28.13-0.56 27.66-1.20Q27.20-1.84 27.01-2.77L27.01-2.77Q26.88-3.39 26.88-4.73L26.88-4.73L26.88-12.45L28.99-12.45L28.99-5.54Q28.99-3.89 29.12-3.32L29.12-3.32Q29.32-2.48 29.96-2.01Q30.61-1.54 31.56-1.54L31.56-1.54Q32.51-1.54 33.34-2.02Q34.17-2.51 34.52-3.35Q34.86-4.18 34.86-5.78L34.86-5.78L34.86-12.45L36.97-12.45L36.97 0ZM39.43-3.71L39.43-3.71L41.52-4.04Q41.70-2.79 42.50-2.12Q43.30-1.45 44.74-1.45L44.74-1.45Q46.20-1.45 46.90-2.04Q47.60-2.64 47.60-3.43L47.60-3.43Q47.60-4.15 46.98-4.56L46.98-4.56Q46.55-4.84 44.82-5.27L44.82-5.27Q42.50-5.86 41.61-6.29Q40.71-6.71 40.25-7.47Q39.79-8.23 39.79-9.14L39.79-9.14Q39.79-9.97 40.17-10.68Q40.55-11.39 41.20-11.86L41.20-11.86Q41.70-12.22 42.54-12.47Q43.39-12.73 44.37-12.73L44.37-12.73Q45.83-12.73 46.94-12.30Q48.05-11.88 48.57-11.16Q49.10-10.44 49.30-9.23L49.30-9.23L47.24-8.95Q47.10-9.91 46.42-10.45Q45.75-10.99 44.52-10.99L44.52-10.99Q43.07-10.99 42.45-10.51Q41.82-10.03 41.82-9.39L41.82-9.39Q41.82-8.98 42.08-8.65L42.08-8.65Q42.34-8.31 42.89-8.09L42.89-8.09Q43.21-7.97 44.75-7.55L44.75-7.55Q46.99-6.95 47.88-6.57Q48.76-6.19 49.27-5.46Q49.77-4.73 49.77-3.66L49.77-3.66Q49.77-2.60 49.15-1.67Q48.54-0.74 47.38-0.23Q46.22 0.28 44.75 0.28L44.75 0.28Q42.33 0.28 41.06-0.73Q39.79-1.73 39.43-3.71ZM60.80-4.01L60.80-4.01L62.98-3.74Q62.46-1.83 61.07-0.77Q59.67 0.28 57.50 0.28L57.50 0.28Q54.77 0.28 53.17-1.40Q51.57-3.08 51.57-6.12L51.57-6.12Q51.57-9.26 53.19-10.99Q54.81-12.73 57.39-12.73L57.39-12.73Q59.88-12.73 61.46-11.03Q63.05-9.33 63.05-6.25L63.05-6.25Q63.05-6.06 63.04-5.68L63.04-5.68L53.75-5.68Q53.87-3.63 54.91-2.54Q55.96-1.45 57.52-1.45L57.52-1.45Q58.68-1.45 59.50-2.06Q60.32-2.67 60.80-4.01ZM53.87-7.42L53.87-7.42L60.82-7.42Q60.68-8.99 60.02-9.77L60.02-9.77Q59.02-10.99 57.41-10.99L57.41-10.99Q55.96-10.99 54.97-10.02Q53.98-9.05 53.87-7.42Z" fill="rgb(41,41,41)"/></g><g transform="translate(301.08,124.24) rotate(0.12605071492878123) translate(-22.740234375,8.44921875)"><path d="M6.19-1.89L6.19-1.89L6.49-0.02Q5.60 0.16 4.90 0.16L4.90 0.16Q3.75 0.16 3.12-0.20Q2.48-0.56 2.23-1.15Q1.97-1.75 1.97-3.64L1.97-3.64L1.97-10.80L0.42-10.80L0.42-12.45L1.97-12.45L1.97-15.53L4.07-16.79L4.07-12.45L6.19-12.45L6.19-10.80L4.07-10.80L4.07-3.53Q4.07-2.63 4.18-2.37Q4.29-2.11 4.54-1.96Q4.79-1.80 5.26-1.80L5.26-1.80Q5.61-1.80 6.19-1.89ZM10.36 0L8.25 0L8.25-17.18L10.36-17.18L10.36-11.02Q11.84-12.73 14.09-12.73L14.09-12.73Q15.47-12.73 16.49-12.18Q17.51-11.64 17.95-10.68Q18.39-9.71 18.39-7.89L18.39-7.89L18.39 0L16.28 0L16.28-7.89Q16.28-9.47 15.59-10.19Q14.91-10.91 13.65-10.91L13.65-10.91Q12.71-10.91 11.89-10.42Q11.06-9.94 10.71-9.11Q10.36-8.27 10.36-6.81L10.36-6.81L10.36 0ZM30.12-4.01L30.12-4.01L32.30-3.74Q31.78-1.83 30.39-0.77Q28.99 0.28 26.82 0.28L26.82 0.28Q24.09 0.28 22.49-1.40Q20.89-3.08 20.89-6.12L20.89-6.12Q20.89-9.26 22.51-10.99Q24.13-12.73 26.71-12.73L26.71-12.73Q29.20-12.73 30.79-11.03Q32.37-9.33 32.37-6.25L32.37-6.25Q32.37-6.06 32.36-5.68L32.36-5.68L23.07-5.68Q23.19-3.63 24.23-2.54Q25.28-1.45 26.84-1.45L26.84-1.45Q28.00-1.45 28.82-2.06Q29.64-2.67 30.12-4.01ZM23.19-7.42L23.19-7.42L30.14-7.42Q30-8.99 29.34-9.77L29.34-9.77Q28.34-10.99 26.73-10.99L26.73-10.99Q25.28-10.99 24.29-10.02Q23.30-9.05 23.19-7.42ZM37.05 0L34.95 0L34.95-12.45L36.84-12.45L36.84-10.68Q38.21-12.73 40.80-12.73L40.80-12.73Q41.93-12.73 42.87-12.32Q43.82-11.92 44.29-11.26Q44.75-10.61 44.94-9.70L44.94-9.70Q45.06-9.12 45.06-7.65L45.06-7.65L45.06 0L42.95 0L42.95-7.57Q42.95-8.86 42.70-9.50Q42.46-10.14 41.83-10.52Q41.20-10.90 40.36-10.90L40.36-10.90Q39.01-10.90 38.03-10.04Q37.05-9.19 37.05-6.80L37.05-6.80L37.05 0Z" fill="rgb(21,21,21)"/></g><g transform="translate(415.26,123.79) rotate(0.2979380534680284) translate(-36.404296875,8.44921875)"><path d="M6.19-1.89L6.19-1.89L6.49-0.02Q5.60 0.16 4.90 0.16L4.90 0.16Q3.75 0.16 3.12-0.20Q2.48-0.56 2.23-1.15Q1.97-1.75 1.97-3.64L1.97-3.64L1.97-10.80L0.42-10.80L0.42-12.45L1.97-12.45L1.97-15.53L4.07-16.79L4.07-12.45L6.19-12.45L6.19-10.80L4.07-10.80L4.07-3.53Q4.07-2.63 4.18-2.37Q4.29-2.11 4.54-1.96Q4.79-1.80 5.26-1.80L5.26-1.80Q5.61-1.80 6.19-1.89ZM10.34 0L8.23 0L8.23-12.45L10.13-12.45L10.13-10.56Q10.85-11.88 11.47-12.30Q12.08-12.73 12.82-12.73L12.82-12.73Q13.89-12.73 14.99-12.05L14.99-12.05L14.26-10.09Q13.49-10.55 12.71-10.55L12.71-10.55Q12.02-10.55 11.47-10.13Q10.92-9.71 10.69-8.98L10.69-8.98Q10.34-7.85 10.34-6.52L10.34-6.52L10.34 0ZM15.46-6.22L15.46-6.22Q15.46-9.68 17.38-11.34L17.38-11.34Q18.98-12.73 21.29-12.73L21.29-12.73Q23.86-12.73 25.49-11.04Q27.12-9.36 27.12-6.40L27.12-6.40Q27.12-4.00 26.40-2.62Q25.68-1.24 24.30-0.48Q22.92 0.28 21.29 0.28L21.29 0.28Q18.68 0.28 17.07-1.39Q15.46-3.07 15.46-6.22ZM17.63-6.22L17.63-6.22Q17.63-3.83 18.67-2.64Q19.71-1.45 21.29-1.45L21.29-1.45Q22.86-1.45 23.91-2.65Q24.95-3.84 24.95-6.29L24.95-6.29Q24.95-8.60 23.90-9.79Q22.85-10.98 21.29-10.98L21.29-10.98Q19.71-10.98 18.67-9.80Q17.63-8.61 17.63-6.22ZM39.63 0L37.75 0L37.75-1.83Q36.29 0.28 33.80 0.28L33.80 0.28Q32.70 0.28 31.74-0.14Q30.79-0.56 30.32-1.20Q29.86-1.84 29.67-2.77L29.67-2.77Q29.54-3.39 29.54-4.73L29.54-4.73L29.54-12.45L31.65-12.45L31.65-5.54Q31.65-3.89 31.78-3.32L31.78-3.32Q31.98-2.48 32.63-2.01Q33.27-1.54 34.22-1.54L34.22-1.54Q35.17-1.54 36-2.02Q36.83-2.51 37.18-3.35Q37.52-4.18 37.52-5.78L37.52-5.78L37.52-12.45L39.63-12.45L39.63 0ZM44.88-1.56L44.88 0L42.93 0L42.93-17.18L45.04-17.18L45.04-11.05Q46.37-12.73 48.45-12.73L48.45-12.73Q49.59-12.73 50.62-12.26Q51.64-11.80 52.31-10.96Q52.97-10.13 53.34-8.94Q53.72-7.76 53.72-6.41L53.72-6.41Q53.72-3.21 52.14-1.46Q50.55 0.28 48.34 0.28L48.34 0.28Q46.14 0.28 44.88-1.56L44.88-1.56ZM44.86-6.32L44.86-6.32Q44.86-4.08 45.47-3.08L45.47-3.08Q46.46-1.45 48.16-1.45L48.16-1.45Q49.55-1.45 50.55-2.65Q51.56-3.86 51.56-6.23L51.56-6.23Q51.56-8.67 50.60-9.83Q49.63-10.99 48.26-10.99L48.26-10.99Q46.88-10.99 45.87-9.79Q44.86-8.59 44.86-6.32ZM58.35 0L56.24 0L56.24-17.18L58.35-17.18L58.35 0ZM70.14-4.01L70.14-4.01L72.32-3.74Q71.80-1.83 70.41-0.77Q69.01 0.28 66.84 0.28L66.84 0.28Q64.11 0.28 62.51-1.40Q60.91-3.08 60.91-6.12L60.91-6.12Q60.91-9.26 62.53-10.99Q64.15-12.73 66.73-12.73L66.73-12.73Q69.22-12.73 70.80-11.03Q72.39-9.33 72.39-6.25L72.39-6.25Q72.39-6.06 72.38-5.68L72.38-5.68L63.09-5.68Q63.21-3.63 64.25-2.54Q65.30-1.45 66.86-1.45L66.86-1.45Q68.02-1.45 68.84-2.06Q69.66-2.67 70.14-4.01ZM63.21-7.42L63.21-7.42L70.16-7.42Q70.02-8.99 69.36-9.77L69.36-9.77Q68.36-10.99 66.75-10.99L66.75-10.99Q65.30-10.99 64.31-10.02Q63.32-9.05 63.21-7.42Z" fill="rgb(74,74,74)"/></g><g transform="translate(539.33,118.41) rotate(1.7303325412950865) translate(-10.822265625,8.595703125)"><path d="M0.80-6.22L0.80-6.22Q0.80-9.68 2.72-11.34L2.72-11.34Q4.32-12.73 6.63-12.73L6.63-12.73Q9.20-12.73 10.83-11.04Q12.46-9.36 12.46-6.40L12.46-6.40Q12.46-4.00 11.74-2.62Q11.02-1.24 9.64-0.48Q8.26 0.28 6.63 0.28L6.63 0.28Q4.02 0.28 2.41-1.39Q0.80-3.07 0.80-6.22ZM2.96-6.22L2.96-6.22Q2.96-3.83 4.01-2.64Q5.05-1.45 6.63-1.45L6.63-1.45Q8.20-1.45 9.25-2.65Q10.29-3.84 10.29-6.29L10.29-6.29Q10.29-8.60 9.24-9.79Q8.19-10.98 6.63-10.98L6.63-10.98Q5.05-10.98 4.01-9.80Q2.96-8.61 2.96-6.22ZM17.53 0L15.43 0L15.43-10.80L13.57-10.80L13.57-12.45L15.43-12.45L15.43-13.77Q15.43-15.02 15.66-15.63L15.66-15.63Q15.96-16.45 16.73-16.96Q17.50-17.47 18.88-17.47L18.88-17.47Q19.77-17.47 20.85-17.26L20.85-17.26L20.53-15.42Q19.88-15.54 19.29-15.54L19.29-15.54Q18.33-15.54 17.93-15.13Q17.53-14.72 17.53-13.59L17.53-13.59L17.53-12.45L19.96-12.45L19.96-10.80L17.53-10.80L17.53 0Z" fill="rgb(24,24,24)"/></g><g transform="translate(62.59,197.62) rotate(-5.190997623885259) translate(-33.328125,6.064453125)"><path d="M3.53-1.56L3.53 0L1.57 0L1.57-17.18L3.68-17.18L3.68-11.05Q5.02-12.73 7.09-12.73L7.09-12.73Q8.24-12.73 9.26-12.26Q10.29-11.80 10.95-10.96Q11.61-10.13 11.99-8.94Q12.36-7.76 12.36-6.41L12.36-6.41Q12.36-3.21 10.78-1.46Q9.20 0.28 6.98 0.28L6.98 0.28Q4.78 0.28 3.53-1.56L3.53-1.56ZM3.50-6.32L3.50-6.32Q3.50-4.08 4.11-3.08L4.11-3.08Q5.11-1.45 6.81-1.45L6.81-1.45Q8.19-1.45 9.20-2.65Q10.21-3.86 10.21-6.23L10.21-6.23Q10.21-8.67 9.24-9.83Q8.27-10.99 6.90-10.99L6.90-10.99Q5.52-10.99 4.51-9.79Q3.50-8.59 3.50-6.32ZM23.45-4.01L23.45-4.01L25.63-3.74Q25.11-1.83 23.72-0.77Q22.32 0.28 20.16 0.28L20.16 0.28Q17.43 0.28 15.83-1.40Q14.23-3.08 14.23-6.12L14.23-6.12Q14.23-9.26 15.84-10.99Q17.46-12.73 20.04-12.73L20.04-12.73Q22.54-12.73 24.12-11.03Q25.70-9.33 25.70-6.25L25.70-6.25Q25.70-6.06 25.69-5.68L25.69-5.68L16.41-5.68Q16.52-3.63 17.57-2.54Q18.61-1.45 20.17-1.45L20.17-1.45Q21.33-1.45 22.15-2.06Q22.97-2.67 23.45-4.01ZM16.52-7.42L16.52-7.42L23.47-7.42Q23.33-8.99 22.68-9.77L22.68-9.77Q21.67-10.99 20.06-10.99L20.06-10.99Q18.61-10.99 17.62-10.02Q16.63-9.05 16.52-7.42ZM27.89 1.03L27.89 1.03L29.94 1.34Q30.07 2.29 30.66 2.72L30.66 2.72Q31.44 3.30 32.80 3.30L32.80 3.30Q34.27 3.30 35.06 2.72Q35.86 2.13 36.14 1.08L36.14 1.08Q36.30 0.43 36.29-1.63L36.29-1.63Q34.91 0 32.85 0L32.85 0Q30.28 0 28.88-1.85Q27.47-3.70 27.47-6.29L27.47-6.29Q27.47-8.07 28.11-9.58Q28.76-11.09 29.98-11.91Q31.21-12.73 32.86-12.73L32.86-12.73Q35.06-12.73 36.49-10.95L36.49-10.95L36.49-12.45L38.44-12.45L38.44-1.69Q38.44 1.22 37.85 2.43Q37.25 3.64 35.97 4.35Q34.69 5.05 32.81 5.05L32.81 5.05Q30.59 5.05 29.21 4.05Q27.84 3.05 27.89 1.03ZM29.64-6.45L29.64-6.45Q29.64-4.00 30.61-2.87Q31.58-1.75 33.05-1.75L33.05-1.75Q34.50-1.75 35.48-2.87Q36.47-3.98 36.47-6.38L36.47-6.38Q36.47-8.66 35.46-9.82Q34.44-10.98 33.01-10.98L33.01-10.98Q31.61-10.98 30.62-9.84Q29.64-8.70 29.64-6.45ZM49.75-1.54L49.75-1.54Q48.57-0.54 47.49-0.13Q46.41 0.28 45.16 0.28L45.16 0.28Q43.11 0.28 42.01-0.72Q40.91-1.72 40.91-3.28L40.91-3.28Q40.91-4.20 41.33-4.95Q41.74-5.71 42.42-6.16Q43.09-6.62 43.93-6.86L43.93-6.86Q44.55-7.02 45.81-7.17L45.81-7.17Q48.36-7.48 49.57-7.90L49.57-7.90Q49.58-8.33 49.58-8.45L49.58-8.45Q49.58-9.74 48.98-10.27L48.98-10.27Q48.18-10.98 46.58-10.98L46.58-10.98Q45.09-10.98 44.38-10.46Q43.68-9.94 43.34-8.61L43.34-8.61L41.27-8.89Q41.55-10.22 42.20-11.03Q42.84-11.85 44.06-12.29Q45.28-12.73 46.89-12.73L46.89-12.73Q48.48-12.73 49.48-12.35Q50.47-11.98 50.94-11.41Q51.41-10.84 51.60-9.97L51.60-9.97Q51.70-9.43 51.70-8.03L51.70-8.03L51.70-5.21Q51.70-2.27 51.84-1.49Q51.97-0.71 52.37 0L52.37 0L50.17 0Q49.84-0.66 49.75-1.54ZM49.57-5.47L49.57-6.25Q48.42-5.78 46.13-5.45L46.13-5.45Q44.82-5.26 44.29-5.03Q43.75-4.79 43.45-4.34Q43.16-3.89 43.16-3.34L43.16-3.34Q43.16-2.50 43.80-1.93Q44.44-1.37 45.67-1.37L45.67-1.37Q46.89-1.37 47.84-1.90Q48.79-2.44 49.23-3.36L49.23-3.36Q49.57-4.08 49.57-5.47L49.57-5.47ZM57.08 0L54.97 0L54.97-12.45L56.87-12.45L56.87-10.68Q58.24-12.73 60.83-12.73L60.83-12.73Q61.96-12.73 62.90-12.32Q63.84-11.92 64.31-11.26Q64.78-10.61 64.97-9.70L64.97-9.70Q65.09-9.12 65.09-7.65L65.09-7.65L65.09 0L62.98 0L62.98-7.57Q62.98-8.86 62.73-9.50Q62.48-10.14 61.86-10.52Q61.23-10.90 60.39-10.90L60.39-10.90Q59.04-10.90 58.06-10.04Q57.08-9.19 57.08-6.80L57.08-6.80L57.08 0Z" fill="rgb(13,13,13)"/></g><g transform="translate(177.61,196.22) rotate(-5.019110285346012) translate(-21.615234375,8.44921875)"><path d="M9.70-4.56L9.70-4.56L11.78-4.29Q11.44-2.14 10.04-0.93Q8.64 0.28 6.60 0.28L6.60 0.28Q4.04 0.28 2.49-1.39Q0.94-3.06 0.94-6.18L0.94-6.18Q0.94-8.19 1.61-9.70Q2.27-11.21 3.64-11.97Q5.00-12.73 6.61-12.73L6.61-12.73Q8.64-12.73 9.93-11.70Q11.21-10.68 11.58-8.79L11.58-8.79L9.53-8.47Q9.23-9.73 8.49-10.36Q7.75-10.99 6.69-10.99L6.69-10.99Q5.10-10.99 4.10-9.85Q3.11-8.71 3.11-6.23L3.11-6.23Q3.11-3.73 4.07-2.59Q5.03-1.45 6.57-1.45L6.57-1.45Q7.82-1.45 8.65-2.21Q9.48-2.98 9.70-4.56ZM12.80-6.22L12.80-6.22Q12.80-9.68 14.72-11.34L14.72-11.34Q16.32-12.73 18.63-12.73L18.63-12.73Q21.20-12.73 22.83-11.04Q24.46-9.36 24.46-6.40L24.46-6.40Q24.46-4.00 23.74-2.62Q23.02-1.24 21.64-0.48Q20.26 0.28 18.63 0.28L18.63 0.28Q16.02 0.28 14.41-1.39Q12.80-3.07 12.80-6.22ZM14.96-6.22L14.96-6.22Q14.96-3.83 16.01-2.64Q17.05-1.45 18.63-1.45L18.63-1.45Q20.20-1.45 21.25-2.65Q22.29-3.84 22.29-6.29L22.29-6.29Q22.29-8.60 21.24-9.79Q20.19-10.98 18.63-10.98L18.63-10.98Q17.05-10.98 16.01-9.80Q14.96-8.61 14.96-6.22ZM28.99 0L26.88 0L26.88-17.18L28.99-17.18L28.99 0ZM42.29 0L40.34 0L40.34-1.57Q39.15 0.28 36.86 0.28L36.86 0.28Q35.37 0.28 34.12-0.54Q32.87-1.36 32.19-2.83Q31.50-4.30 31.50-6.21L31.50-6.21Q31.50-8.07 32.12-9.59Q32.74-11.11 33.98-11.92Q35.23-12.73 36.76-12.73L36.76-12.73Q37.89-12.73 38.77-12.25Q39.64-11.78 40.20-11.02L40.20-11.02L40.20-17.18L42.29-17.18L42.29 0ZM33.67-6.21L33.67-6.21Q33.67-3.82 34.68-2.64Q35.68-1.45 37.05-1.45L37.05-1.45Q38.44-1.45 39.40-2.58Q40.37-3.71 40.37-6.04L40.37-6.04Q40.37-8.59 39.39-9.79Q38.40-10.98 36.96-10.98L36.96-10.98Q35.55-10.98 34.61-9.83Q33.67-8.68 33.67-6.21Z" fill="rgb(47,47,47)"/></g><g transform="translate(295.26,202.24) rotate(1.019864875332865) translate(-39.9609375,8.44921875)"><path d="M6.08 0L3.88 0L0.07-12.45L2.25-12.45L4.23-5.26L4.97-2.59Q5.02-2.79 5.61-5.16L5.61-5.16L7.59-12.45L9.76-12.45L11.63-5.23L12.25-2.85L12.96-5.25L15.09-12.45L17.14-12.45L13.25 0L11.06 0L9.08-7.45L8.60-9.57L6.08 0ZM21.04-14.75L18.93-14.75L18.93-17.18L21.04-17.18L21.04-14.75ZM21.04 0L18.93 0L18.93-12.45L21.04-12.45L21.04 0ZM26.36 0L24.25 0L24.25-12.45L26.14-12.45L26.14-10.68Q27.52-12.73 30.11-12.73L30.11-12.73Q31.23-12.73 32.17-12.32Q33.12-11.92 33.59-11.26Q34.05-10.61 34.24-9.70L34.24-9.70Q34.36-9.12 34.36-7.65L34.36-7.65L34.36 0L32.25 0L32.25-7.57Q32.25-8.86 32.00-9.50Q31.76-10.14 31.13-10.52Q30.50-10.90 29.66-10.90L29.66-10.90Q28.31-10.90 27.33-10.04Q26.36-9.19 26.36-6.80L26.36-6.80L26.36 0ZM47.63 0L45.67 0L45.67-1.57Q44.48 0.28 42.19 0.28L42.19 0.28Q40.70 0.28 39.45-0.54Q38.20-1.36 37.52-2.83Q36.83-4.30 36.83-6.21L36.83-6.21Q36.83-8.07 37.45-9.59Q38.07-11.11 39.32-11.92Q40.56-12.73 42.09-12.73L42.09-12.73Q43.22-12.73 44.10-12.25Q44.98-11.78 45.53-11.02L45.53-11.02L45.53-17.18L47.63-17.18L47.63 0ZM39-6.21L39-6.21Q39-3.82 40.01-2.64Q41.02-1.45 42.39-1.45L42.39-1.45Q43.77-1.45 44.74-2.58Q45.70-3.71 45.70-6.04L45.70-6.04Q45.70-8.59 44.72-9.79Q43.73-10.98 42.29-10.98L42.29-10.98Q40.89-10.98 39.94-9.83Q39-8.68 39-6.21ZM50.16-6.22L50.16-6.22Q50.16-9.68 52.08-11.34L52.08-11.34Q53.68-12.73 55.99-12.73L55.99-12.73Q58.56-12.73 60.19-11.04Q61.82-9.36 61.82-6.40L61.82-6.40Q61.82-4.00 61.10-2.62Q60.38-1.24 59.00-0.48Q57.62 0.28 55.99 0.28L55.99 0.28Q53.38 0.28 51.77-1.39Q50.16-3.07 50.16-6.22ZM52.32-6.22L52.32-6.22Q52.32-3.83 53.37-2.64Q54.41-1.45 55.99-1.45L55.99-1.45Q57.56-1.45 58.61-2.65Q59.65-3.84 59.65-6.29L59.65-6.29Q59.65-8.60 58.60-9.79Q57.55-10.98 55.99-10.98L55.99-10.98Q54.41-10.98 53.37-9.80Q52.32-8.61 52.32-6.22ZM68.79 0L66.59 0L62.78-12.45L64.96-12.45L66.94-5.26L67.68-2.59Q67.72-2.79 68.32-5.16L68.32-5.16L70.30-12.45L72.47-12.45L74.33-5.23L74.95-2.85L75.67-5.25L77.80-12.45L79.85-12.45L75.96 0L73.77 0L71.79-7.45L71.31-9.57L68.79 0Z" fill="rgb(22,22,22)"/></g><g transform="translate(417.17,201.17) rotate(-2.5783100780887045) translate(-24.966796875,8.44921875)"><path d="M3.53-1.56L3.53 0L1.57 0L1.57-17.18L3.68-17.18L3.68-11.05Q5.02-12.73 7.09-12.73L7.09-12.73Q8.24-12.73 9.26-12.26Q10.29-11.80 10.95-10.96Q11.61-10.13 11.99-8.94Q12.36-7.76 12.36-6.41L12.36-6.41Q12.36-3.21 10.78-1.46Q9.20 0.28 6.98 0.28L6.98 0.28Q4.78 0.28 3.53-1.56L3.53-1.56ZM3.50-6.32L3.50-6.32Q3.50-4.08 4.11-3.08L4.11-3.08Q5.11-1.45 6.81-1.45L6.81-1.45Q8.19-1.45 9.20-2.65Q10.21-3.86 10.21-6.23L10.21-6.23Q10.21-8.67 9.24-9.83Q8.27-10.99 6.90-10.99L6.90-10.99Q5.52-10.99 4.51-9.79Q3.50-8.59 3.50-6.32ZM23.45-4.01L23.45-4.01L25.63-3.74Q25.11-1.83 23.72-0.77Q22.32 0.28 20.16 0.28L20.16 0.28Q17.43 0.28 15.83-1.40Q14.23-3.08 14.23-6.12L14.23-6.12Q14.23-9.26 15.84-10.99Q17.46-12.73 20.04-12.73L20.04-12.73Q22.54-12.73 24.12-11.03Q25.70-9.33 25.70-6.25L25.70-6.25Q25.70-6.06 25.69-5.68L25.69-5.68L16.41-5.68Q16.52-3.63 17.57-2.54Q18.61-1.45 20.17-1.45L20.17-1.45Q21.33-1.45 22.15-2.06Q22.97-2.67 23.45-4.01ZM16.52-7.42L16.52-7.42L23.47-7.42Q23.33-8.99 22.68-9.77L22.68-9.77Q21.67-10.99 20.06-10.99L20.06-10.99Q18.61-10.99 17.62-10.02Q16.63-9.05 16.52-7.42ZM36.40-1.54L36.40-1.54Q35.23-0.54 34.14-0.13Q33.06 0.28 31.82 0.28L31.82 0.28Q29.77 0.28 28.66-0.72Q27.56-1.72 27.56-3.28L27.56-3.28Q27.56-4.20 27.98-4.95Q28.39-5.71 29.07-6.16Q29.74-6.62 30.59-6.86L30.59-6.86Q31.21-7.02 32.46-7.17L32.46-7.17Q35.02-7.48 36.22-7.90L36.22-7.90Q36.23-8.33 36.23-8.45L36.23-8.45Q36.23-9.74 35.64-10.27L35.64-10.27Q34.83-10.98 33.23-10.98L33.23-10.98Q31.75-10.98 31.04-10.46Q30.33-9.94 29.99-8.61L29.99-8.61L27.93-8.89Q28.21-10.22 28.85-11.03Q29.50-11.85 30.71-12.29Q31.93-12.73 33.54-12.73L33.54-12.73Q35.13-12.73 36.13-12.35Q37.13-11.98 37.59-11.41Q38.06-10.84 38.25-9.97L38.25-9.97Q38.36-9.43 38.36-8.03L38.36-8.03L38.36-5.21Q38.36-2.27 38.49-1.49Q38.63-0.71 39.02 0L39.02 0L36.82 0Q36.49-0.66 36.40-1.54ZM36.22-5.47L36.22-6.25Q35.07-5.78 32.78-5.45L32.78-5.45Q31.48-5.26 30.94-5.03Q30.40-4.79 30.11-4.34Q29.81-3.89 29.81-3.34L29.81-3.34Q29.81-2.50 30.45-1.93Q31.09-1.37 32.32-1.37L32.32-1.37Q33.54-1.37 34.49-1.90Q35.44-2.44 35.88-3.36L35.88-3.36Q36.22-4.08 36.22-5.47L36.22-5.47ZM43.71 0L41.60 0L41.60-12.45L43.50-12.45L43.50-10.56Q44.23-11.88 44.84-12.30Q45.46-12.73 46.20-12.73L46.20-12.73Q47.26-12.73 48.36-12.05L48.36-12.05L47.64-10.09Q46.86-10.55 46.09-10.55L46.09-10.55Q45.40-10.55 44.85-10.13Q44.30-9.71 44.06-8.98L44.06-8.98Q43.71-7.85 43.71-6.52L43.71-6.52L43.71 0Z" fill="rgb(53,53,53)"/></g><g transform="translate(541.53,198.66) rotate(-1.6386592940741547) translate(-22.3828125,8.44921875)"><path d="M6.19-1.89L6.19-1.89L6.49-0.02Q5.60 0.16 4.90 0.16L4.90 0.16Q3.75 0.16 3.12-0.20Q2.48-0.56 2.23-1.15Q1.97-1.75 1.97-3.64L1.97-3.64L1.97-10.80L0.42-10.80L0.42-12.45L1.97-12.45L1.97-15.53L4.07-16.79L4.07-12.45L6.19-12.45L6.19-10.80L4.07-10.80L4.07-3.53Q4.07-2.63 4.18-2.37Q4.29-2.11 4.54-1.96Q4.79-1.80 5.26-1.80L5.26-1.80Q5.61-1.80 6.19-1.89ZM10.37-14.75L8.26-14.75L8.26-17.18L10.37-17.18L10.37-14.75ZM10.37 0L8.26 0L8.26-12.45L10.37-12.45L10.37 0ZM15.69 0L13.58 0L13.58-12.45L15.47-12.45L15.47-10.70Q16.05-11.61 17.03-12.17Q18-12.73 19.24-12.73L19.24-12.73Q20.63-12.73 21.51-12.15Q22.39-11.58 22.76-10.55L22.76-10.55Q24.23-12.73 26.60-12.73L26.60-12.73Q28.45-12.73 29.45-11.70Q30.45-10.68 30.45-8.54L30.45-8.54L30.45 0L28.35 0L28.35-7.84Q28.35-9.11 28.14-9.66Q27.94-10.22 27.40-10.56Q26.86-10.90 26.13-10.90L26.13-10.90Q24.82-10.90 23.95-10.03Q23.09-9.15 23.09-7.23L23.09-7.23L23.09 0L20.98 0L20.98-8.09Q20.98-9.49 20.46-10.20Q19.95-10.90 18.77-10.90L18.77-10.90Q17.88-10.90 17.13-10.43Q16.37-9.96 16.03-9.06Q15.69-8.16 15.69-6.46L15.69-6.46L15.69 0ZM42.09-4.01L42.09-4.01L44.27-3.74Q43.76-1.83 42.36-0.77Q40.97 0.28 38.80 0.28L38.80 0.28Q36.07 0.28 34.47-1.40Q32.87-3.08 32.87-6.12L32.87-6.12Q32.87-9.26 34.49-10.99Q36.11-12.73 38.68-12.73L38.68-12.73Q41.18-12.73 42.76-11.03Q44.34-9.33 44.34-6.25L44.34-6.25Q44.34-6.06 44.33-5.68L44.33-5.68L35.05-5.68Q35.17-3.63 36.21-2.54Q37.25-1.45 38.81-1.45L38.81-1.45Q39.97-1.45 40.79-2.06Q41.61-2.67 42.09-4.01ZM35.17-7.42L35.17-7.42L42.12-7.42Q41.98-8.99 41.32-9.77L41.32-9.77Q40.31-10.99 38.71-10.99L38.71-10.99Q37.25-10.99 36.26-10.02Q35.27-9.05 35.17-7.42Z" fill="rgb(12,12,12)"/></g><g transform="translate(56.97,280.25) rotate(4.056541189526229) translate(-27.064453125,8.44921875)"><path d="M6.19-1.89L6.19-1.89L6.49-0.02Q5.60 0.16 4.90 0.16L4.90 0.16Q3.75 0.16 3.12-0.20Q2.48-0.56 2.23-1.15Q1.97-1.75 1.97-3.64L1.97-3.64L1.97-10.80L0.42-10.80L0.42-12.45L1.97-12.45L1.97-15.53L4.07-16.79L4.07-12.45L6.19-12.45L6.19-10.80L4.07-10.80L4.07-3.53Q4.07-2.63 4.18-2.37Q4.29-2.11 4.54-1.96Q4.79-1.80 5.26-1.80L5.26-1.80Q5.61-1.80 6.19-1.89ZM10.36 0L8.25 0L8.25-17.18L10.36-17.18L10.36-11.02Q11.84-12.73 14.09-12.73L14.09-12.73Q15.47-12.73 16.49-12.18Q17.51-11.64 17.95-10.68Q18.39-9.71 18.39-7.89L18.39-7.89L18.39 0L16.28 0L16.28-7.89Q16.28-9.47 15.59-10.19Q14.91-10.91 13.65-10.91L13.65-10.91Q12.71-10.91 11.89-10.42Q11.06-9.94 10.71-9.11Q10.36-8.27 10.36-6.81L10.36-6.81L10.36 0ZM30.12-4.01L30.12-4.01L32.30-3.74Q31.78-1.83 30.39-0.77Q28.99 0.28 26.82 0.28L26.82 0.28Q24.09 0.28 22.49-1.40Q20.89-3.08 20.89-6.12L20.89-6.12Q20.89-9.26 22.51-10.99Q24.13-12.73 26.71-12.73L26.71-12.73Q29.20-12.73 30.79-11.03Q32.37-9.33 32.37-6.25L32.37-6.25Q32.37-6.06 32.36-5.68L32.36-5.68L23.07-5.68Q23.19-3.63 24.23-2.54Q25.28-1.45 26.84-1.45L26.84-1.45Q28.00-1.45 28.82-2.06Q29.64-2.67 30.12-4.01ZM23.19-7.42L23.19-7.42L30.14-7.42Q30-8.99 29.34-9.77L29.34-9.77Q28.34-10.99 26.73-10.99L26.73-10.99Q25.28-10.99 24.29-10.02Q23.30-9.05 23.19-7.42ZM37.03 0L34.92 0L34.92-12.45L36.82-12.45L36.82-10.56Q37.55-11.88 38.16-12.30Q38.78-12.73 39.52-12.73L39.52-12.73Q40.58-12.73 41.68-12.05L41.68-12.05L40.96-10.09Q40.18-10.55 39.41-10.55L39.41-10.55Q38.72-10.55 38.17-10.13Q37.62-9.71 37.38-8.98L37.38-8.98Q37.03-7.85 37.03-6.52L37.03-6.52L37.03 0ZM51.46-4.01L51.46-4.01L53.64-3.74Q53.12-1.83 51.73-0.77Q50.33 0.28 48.16 0.28L48.16 0.28Q45.43 0.28 43.83-1.40Q42.23-3.08 42.23-6.12L42.23-6.12Q42.23-9.26 43.85-10.99Q45.47-12.73 48.05-12.73L48.05-12.73Q50.54-12.73 52.13-11.03Q53.71-9.33 53.71-6.25L53.71-6.25Q53.71-6.06 53.70-5.68L53.70-5.68L44.41-5.68Q44.53-3.63 45.57-2.54Q46.62-1.45 48.18-1.45L48.18-1.45Q49.34-1.45 50.16-2.06Q50.98-2.67 51.46-4.01ZM44.53-7.42L44.53-7.42L51.48-7.42Q51.34-8.99 50.68-9.77L50.68-9.77Q49.68-10.99 48.07-10.99L48.07-10.99Q46.62-10.99 45.63-10.02Q44.64-9.05 44.53-7.42Z" fill="rgb(50,50,50)"/></g><g transform="translate(180.94,280.68) rotate(5.660823015892533) translate(-34.212890625,8.44921875)"><path d="M0.74-3.71L0.74-3.71L2.82-4.04Q3-2.79 3.80-2.12Q4.61-1.45 6.05-1.45L6.05-1.45Q7.50-1.45 8.20-2.04Q8.91-2.64 8.91-3.43L8.91-3.43Q8.91-4.15 8.29-4.56L8.29-4.56Q7.85-4.84 6.13-5.27L6.13-5.27Q3.81-5.86 2.91-6.29Q2.02-6.71 1.55-7.47Q1.09-8.23 1.09-9.14L1.09-9.14Q1.09-9.97 1.47-10.68Q1.85-11.39 2.51-11.86L2.51-11.86Q3-12.22 3.85-12.47Q4.70-12.73 5.67-12.73L5.67-12.73Q7.14-12.73 8.24-12.30Q9.35-11.88 9.88-11.16Q10.41-10.44 10.61-9.23L10.61-9.23L8.54-8.95Q8.40-9.91 7.73-10.45Q7.05-10.99 5.82-10.99L5.82-10.99Q4.37-10.99 3.75-10.51Q3.13-10.03 3.13-9.39L3.13-9.39Q3.13-8.98 3.39-8.65L3.39-8.65Q3.64-8.31 4.20-8.09L4.20-8.09Q4.51-7.97 6.06-7.55L6.06-7.55Q8.30-6.95 9.18-6.57Q10.07-6.19 10.57-5.46Q11.07-4.73 11.07-3.66L11.07-3.66Q11.07-2.60 10.46-1.67Q9.84-0.74 8.68-0.23Q7.52 0.28 6.06 0.28L6.06 0.28Q3.63 0.28 2.36-0.73Q1.09-1.73 0.74-3.71ZM21.70-4.56L21.70-4.56L23.78-4.29Q23.44-2.14 22.04-0.93Q20.64 0.28 18.60 0.28L18.60 0.28Q16.04 0.28 14.49-1.39Q12.94-3.06 12.94-6.18L12.94-6.18Q12.94-8.19 13.61-9.70Q14.27-11.21 15.64-11.97Q17.00-12.73 18.61-12.73L18.61-12.73Q20.64-12.73 21.93-11.70Q23.21-10.68 23.58-8.79L23.58-8.79L21.53-8.47Q21.23-9.73 20.49-10.36Q19.75-10.99 18.69-10.99L18.69-10.99Q17.10-10.99 16.10-9.85Q15.11-8.71 15.11-6.23L15.11-6.23Q15.11-3.73 16.07-2.59Q17.03-1.45 18.57-1.45L18.57-1.45Q19.82-1.45 20.65-2.21Q21.48-2.98 21.70-4.56ZM27.69 0L25.58 0L25.58-17.18L27.69-17.18L27.69-11.02Q29.17-12.73 31.42-12.73L31.42-12.73Q32.80-12.73 33.82-12.18Q34.84-11.64 35.28-10.68Q35.72-9.71 35.72-7.89L35.72-7.89L35.72 0L33.61 0L33.61-7.89Q33.61-9.47 32.92-10.19Q32.24-10.91 30.98-10.91L30.98-10.91Q30.05-10.91 29.22-10.42Q28.39-9.94 28.04-9.11Q27.69-8.27 27.69-6.81L27.69-6.81L27.69 0ZM38.14-6.22L38.14-6.22Q38.14-9.68 40.07-11.34L40.07-11.34Q41.67-12.73 43.98-12.73L43.98-12.73Q46.55-12.73 48.18-11.04Q49.80-9.36 49.80-6.40L49.80-6.40Q49.80-4.00 49.08-2.62Q48.36-1.24 46.99-0.48Q45.61 0.28 43.98 0.28L43.98 0.28Q41.37 0.28 39.76-1.39Q38.14-3.07 38.14-6.22ZM40.31-6.22L40.31-6.22Q40.31-3.83 41.36-2.64Q42.40-1.45 43.98-1.45L43.98-1.45Q45.55-1.45 46.59-2.65Q47.64-3.84 47.64-6.29L47.64-6.29Q47.64-8.60 46.59-9.79Q45.54-10.98 43.98-10.98L43.98-10.98Q42.40-10.98 41.36-9.80Q40.31-8.61 40.31-6.22ZM51.49-6.22L51.49-6.22Q51.49-9.68 53.41-11.34L53.41-11.34Q55.02-12.73 57.33-12.73L57.33-12.73Q59.89-12.73 61.52-11.04Q63.15-9.36 63.15-6.40L63.15-6.40Q63.15-4.00 62.43-2.62Q61.71-1.24 60.33-0.48Q58.96 0.28 57.33 0.28L57.33 0.28Q54.71 0.28 53.10-1.39Q51.49-3.07 51.49-6.22ZM53.66-6.22L53.66-6.22Q53.66-3.83 54.70-2.64Q55.75-1.45 57.33-1.45L57.33-1.45Q58.90-1.45 59.94-2.65Q60.98-3.84 60.98-6.29L60.98-6.29Q60.98-8.60 59.94-9.79Q58.89-10.98 57.33-10.98L57.33-10.98Q55.75-10.98 54.70-9.80Q53.66-8.61 53.66-6.22ZM67.69 0L65.58 0L65.58-17.18L67.69-17.18L67.69 0Z" fill="rgb(75,75,75)"/></g><g transform="translate(304.76,279.7) rotate(-2.0282705947631143) translate(-21.609375,8.44921875)"><path d="M3.64 0L1.54 0L1.54-17.18L3.64-17.18L3.64 0ZM9.04-14.75L6.93-14.75L6.93-17.18L9.04-17.18L9.04-14.75ZM9.04 0L6.93 0L6.93-12.45L9.04-12.45L9.04 0ZM16.85-1.89L16.85-1.89L17.16-0.02Q16.27 0.16 15.56 0.16L15.56 0.16Q14.41 0.16 13.78-0.20Q13.15-0.56 12.89-1.15Q12.63-1.75 12.63-3.64L12.63-3.64L12.63-10.80L11.09-10.80L11.09-12.45L12.63-12.45L12.63-15.53L14.73-16.79L14.73-12.45L16.85-12.45L16.85-10.80L14.73-10.80L14.73-3.53Q14.73-2.63 14.84-2.37Q14.95-2.11 15.21-1.96Q15.46-1.80 15.93-1.80L15.93-1.80Q16.28-1.80 16.85-1.89ZM23.52-1.89L23.52-1.89L23.82-0.02Q22.93 0.16 22.23 0.16L22.23 0.16Q21.08 0.16 20.45-0.20Q19.82-0.56 19.56-1.15Q19.30-1.75 19.30-3.64L19.30-3.64L19.30-10.80L17.75-10.80L17.75-12.45L19.30-12.45L19.30-15.53L21.40-16.79L21.40-12.45L23.52-12.45L23.52-10.80L21.40-10.80L21.40-3.53Q21.40-2.63 21.51-2.37Q21.62-2.11 21.87-1.96Q22.13-1.80 22.59-1.80L22.59-1.80Q22.95-1.80 23.52-1.89ZM27.64 0L25.54 0L25.54-17.18L27.64-17.18L27.64 0ZM39.43-4.01L39.43-4.01L41.61-3.74Q41.10-1.83 39.70-0.77Q38.31 0.28 36.14 0.28L36.14 0.28Q33.41 0.28 31.81-1.40Q30.21-3.08 30.21-6.12L30.21-6.12Q30.21-9.26 31.83-10.99Q33.45-12.73 36.02-12.73L36.02-12.73Q38.52-12.73 40.10-11.03Q41.68-9.33 41.68-6.25L41.68-6.25Q41.68-6.06 41.67-5.68L41.67-5.68L32.39-5.68Q32.51-3.63 33.55-2.54Q34.59-1.45 36.15-1.45L36.15-1.45Q37.31-1.45 38.13-2.06Q38.95-2.67 39.43-4.01ZM32.51-7.42L32.51-7.42L39.46-7.42Q39.32-8.99 38.66-9.77L38.66-9.77Q37.65-10.99 36.05-10.99L36.05-10.99Q34.59-10.99 33.60-10.02Q32.61-9.05 32.51-7.42Z" fill="rgb(83,83,83)"/></g><g transform="translate(418.25,278.36) rotate(3.506501706200639) translate(-29.033203125,8.255859375)"><path d="M10.10-4.01L10.10-4.01L12.28-3.74Q11.77-1.83 10.37-0.77Q8.98 0.28 6.81 0.28L6.81 0.28Q4.08 0.28 2.48-1.40Q0.88-3.08 0.88-6.12L0.88-6.12Q0.88-9.26 2.50-10.99Q4.11-12.73 6.69-12.73L6.69-12.73Q9.19-12.73 10.77-11.03Q12.35-9.33 12.35-6.25L12.35-6.25Q12.35-6.06 12.34-5.68L12.34-5.68L3.06-5.68Q3.18-3.63 4.22-2.54Q5.26-1.45 6.82-1.45L6.82-1.45Q7.98-1.45 8.80-2.06Q9.62-2.67 10.10-4.01ZM3.18-7.42L3.18-7.42L10.13-7.42Q9.98-8.99 9.33-9.77L9.33-9.77Q8.32-10.99 6.71-10.99L6.71-10.99Q5.26-10.99 4.27-10.02Q3.28-9.05 3.18-7.42ZM16.08 0L13.52 0L18.07-6.47L13.86-12.45L16.50-12.45L18.41-9.53Q18.95-8.70 19.28-8.13L19.28-8.13Q19.79-8.91 20.23-9.50L20.23-9.50L22.32-12.45L24.84-12.45L20.54-6.59L25.17 0L22.58 0L20.03-3.87L19.35-4.91L16.08 0ZM35.05-1.54L35.05-1.54Q33.88-0.54 32.79-0.13Q31.71 0.28 30.47 0.28L30.47 0.28Q28.42 0.28 27.32-0.72Q26.21-1.72 26.21-3.28L26.21-3.28Q26.21-4.20 26.63-4.95Q27.05-5.71 27.72-6.16Q28.39-6.62 29.24-6.86L29.24-6.86Q29.86-7.02 31.11-7.17L31.11-7.17Q33.67-7.48 34.88-7.90L34.88-7.90Q34.89-8.33 34.89-8.45L34.89-8.45Q34.89-9.74 34.29-10.27L34.29-10.27Q33.48-10.98 31.89-10.98L31.89-10.98Q30.40-10.98 29.69-10.46Q28.98-9.94 28.64-8.61L28.64-8.61L26.58-8.89Q26.86-10.22 27.50-11.03Q28.15-11.85 29.37-12.29Q30.59-12.73 32.19-12.73L32.19-12.73Q33.79-12.73 34.78-12.35Q35.78-11.98 36.25-11.41Q36.71-10.84 36.90-9.97L36.90-9.97Q37.01-9.43 37.01-8.03L37.01-8.03L37.01-5.21Q37.01-2.27 37.14-1.49Q37.28-0.71 37.68 0L37.68 0L35.47 0Q35.14-0.66 35.05-1.54ZM34.88-5.47L34.88-6.25Q33.73-5.78 31.43-5.45L31.43-5.45Q30.13-5.26 29.59-5.03Q29.05-4.79 28.76-4.34Q28.46-3.89 28.46-3.34L28.46-3.34Q28.46-2.50 29.10-1.93Q29.74-1.37 30.97-1.37L30.97-1.37Q32.19-1.37 33.14-1.90Q34.09-2.44 34.54-3.36L34.54-3.36Q34.88-4.08 34.88-5.47L34.88-5.47ZM48.40-4.56L48.40-4.56L50.47-4.29Q50.13-2.14 48.73-0.93Q47.33 0.28 45.29 0.28L45.29 0.28Q42.74 0.28 41.19-1.39Q39.63-3.06 39.63-6.18L39.63-6.18Q39.63-8.19 40.30-9.70Q40.97-11.21 42.33-11.97Q43.70-12.73 45.30-12.73L45.30-12.73Q47.33-12.73 48.62-11.70Q49.91-10.68 50.27-8.79L50.27-8.79L48.22-8.47Q47.93-9.73 47.19-10.36Q46.44-10.99 45.39-10.99L45.39-10.99Q43.79-10.99 42.80-9.85Q41.80-8.71 41.80-6.23L41.80-6.23Q41.80-3.73 42.76-2.59Q43.72-1.45 45.27-1.45L45.27-1.45Q46.51-1.45 47.34-2.21Q48.18-2.98 48.40-4.56ZM56.88-1.89L56.88-1.89L57.19-0.02Q56.30 0.16 55.59 0.16L55.59 0.16Q54.45 0.16 53.81-0.20Q53.18-0.56 52.92-1.15Q52.66-1.75 52.66-3.64L52.66-3.64L52.66-10.80L51.12-10.80L51.12-12.45L52.66-12.45L52.66-15.53L54.76-16.79L54.76-12.45L56.88-12.45L56.88-10.80L54.76-10.80L54.76-3.53Q54.76-2.63 54.87-2.37Q54.98-2.11 55.24-1.96Q55.49-1.80 55.96-1.80L55.96-1.80Q56.31-1.80 56.88-1.89Z" fill="rgb(10,10,10)"/></g><g transform="translate(538.95,281.96) rotate(3.2429411204404603) translate(-39.603515625,8.44921875)"><path d="M11.61 0L9.66 0L9.66-1.57Q8.47 0.28 6.18 0.28L6.18 0.28Q4.69 0.28 3.44-0.54Q2.19-1.36 1.51-2.83Q0.82-4.30 0.82-6.21L0.82-6.21Q0.82-8.07 1.44-9.59Q2.06-11.11 3.30-11.92Q4.55-12.73 6.08-12.73L6.08-12.73Q7.21-12.73 8.09-12.25Q8.96-11.78 9.52-11.02L9.52-11.02L9.52-17.18L11.61-17.18L11.61 0ZM2.99-6.21L2.99-6.21Q2.99-3.82 4.00-2.64Q5.00-1.45 6.38-1.45L6.38-1.45Q7.76-1.45 8.72-2.58Q9.69-3.71 9.69-6.04L9.69-6.04Q9.69-8.59 8.71-9.79Q7.72-10.98 6.28-10.98L6.28-10.98Q4.88-10.98 3.93-9.83Q2.99-8.68 2.99-6.21ZM17.05-14.75L14.94-14.75L14.94-17.18L17.05-17.18L17.05-14.75ZM17.05 0L14.94 0L14.94-12.45L17.05-12.45L17.05 0ZM25.69 0L23.72 0L18.98-12.45L21.21-12.45L23.88-4.99Q24.32-3.79 24.68-2.48L24.68-2.48Q24.96-3.47 25.46-4.85L25.46-4.85L28.23-12.45L30.40-12.45L25.69 0ZM34.38-14.75L32.27-14.75L32.27-17.18L34.38-17.18L34.38-14.75ZM34.38 0L32.27 0L32.27-12.45L34.38-12.45L34.38 0ZM36.75-3.71L36.75-3.71L38.84-4.04Q39.01-2.79 39.81-2.12Q40.62-1.45 42.06-1.45L42.06-1.45Q43.51-1.45 44.21-2.04Q44.92-2.64 44.92-3.43L44.92-3.43Q44.92-4.15 44.30-4.56L44.30-4.56Q43.86-4.84 42.14-5.27L42.14-5.27Q39.82-5.86 38.92-6.29Q38.03-6.71 37.56-7.47Q37.10-8.23 37.10-9.14L37.10-9.14Q37.10-9.97 37.48-10.68Q37.86-11.39 38.52-11.86L38.52-11.86Q39.01-12.22 39.86-12.47Q40.71-12.73 41.68-12.73L41.68-12.73Q43.15-12.73 44.26-12.30Q45.36-11.88 45.89-11.16Q46.42-10.44 46.62-9.23L46.62-9.23L44.55-8.95Q44.41-9.91 43.74-10.45Q43.07-10.99 41.84-10.99L41.84-10.99Q40.38-10.99 39.76-10.51Q39.14-10.03 39.14-9.39L39.14-9.39Q39.14-8.98 39.40-8.65L39.40-8.65Q39.66-8.31 40.21-8.09L40.21-8.09Q40.52-7.97 42.07-7.55L42.07-7.55Q44.31-6.95 45.19-6.57Q46.08-6.19 46.58-5.46Q47.09-4.73 47.09-3.66L47.09-3.66Q47.09-2.60 46.47-1.67Q45.86-0.74 44.70-0.23Q43.54 0.28 42.07 0.28L42.07 0.28Q39.64 0.28 38.37-0.73Q37.10-1.73 36.75-3.71ZM51.71-14.75L49.61-14.75L49.61-17.18L51.71-17.18L51.71-14.75ZM51.71 0L49.61 0L49.61-12.45L51.71-12.45L51.71 0ZM54.14-6.22L54.14-6.22Q54.14-9.68 56.06-11.34L56.06-11.34Q57.67-12.73 59.98-12.73L59.98-12.73Q62.54-12.73 64.17-11.04Q65.80-9.36 65.80-6.40L65.80-6.40Q65.80-4.00 65.08-2.62Q64.36-1.24 62.98-0.48Q61.61 0.28 59.98 0.28L59.98 0.28Q57.36 0.28 55.75-1.39Q54.14-3.07 54.14-6.22ZM56.31-6.22L56.31-6.22Q56.31-3.83 57.35-2.64Q58.39-1.45 59.98-1.45L59.98-1.45Q61.55-1.45 62.59-2.65Q63.63-3.84 63.63-6.29L63.63-6.29Q63.63-8.60 62.58-9.79Q61.54-10.98 59.98-10.98L59.98-10.98Q58.39-10.98 57.35-9.80Q56.31-8.61 56.31-6.22ZM70.38 0L68.27 0L68.27-12.45L70.17-12.45L70.17-10.68Q71.54-12.73 74.13-12.73L74.13-12.73Q75.26-12.73 76.20-12.32Q77.14-11.92 77.61-11.26Q78.08-10.61 78.27-9.70L78.27-9.70Q78.39-9.12 78.39-7.65L78.39-7.65L78.39 0L76.28 0L76.28-7.57Q76.28-8.86 76.03-9.50Q75.79-10.14 75.16-10.52Q74.53-10.90 73.69-10.90L73.69-10.90Q72.34-10.90 71.36-10.04Q70.38-9.19 70.38-6.80L70.38-6.80L70.38 0Z" fill="rgb(25,25,25)"/></g><g transform="translate(56.85,355.23) rotate(-2.1199438419840457) translate(-28.2890625,6.22265625)"><path d="M0.74-3.71L0.74-3.71L2.82-4.04Q3-2.79 3.80-2.12Q4.61-1.45 6.05-1.45L6.05-1.45Q7.50-1.45 8.20-2.04Q8.91-2.64 8.91-3.43L8.91-3.43Q8.91-4.15 8.29-4.56L8.29-4.56Q7.85-4.84 6.13-5.27L6.13-5.27Q3.81-5.86 2.91-6.29Q2.02-6.71 1.55-7.47Q1.09-8.23 1.09-9.14L1.09-9.14Q1.09-9.97 1.47-10.68Q1.85-11.39 2.51-11.86L2.51-11.86Q3-12.22 3.85-12.47Q4.70-12.73 5.67-12.73L5.67-12.73Q7.14-12.73 8.24-12.30Q9.35-11.88 9.88-11.16Q10.41-10.44 10.61-9.23L10.61-9.23L8.54-8.95Q8.40-9.91 7.73-10.45Q7.05-10.99 5.82-10.99L5.82-10.99Q4.37-10.99 3.75-10.51Q3.13-10.03 3.13-9.39L3.13-9.39Q3.13-8.98 3.39-8.65L3.39-8.65Q3.64-8.31 4.20-8.09L4.20-8.09Q4.51-7.97 6.06-7.55L6.06-7.55Q8.30-6.95 9.18-6.57Q10.07-6.19 10.57-5.46Q11.07-4.73 11.07-3.66L11.07-3.66Q11.07-2.60 10.46-1.67Q9.84-0.74 8.68-0.23Q7.52 0.28 6.06 0.28L6.06 0.28Q3.63 0.28 2.36-0.73Q1.09-1.73 0.74-3.71ZM15.69 0L13.58 0L13.58-12.45L15.48-12.45L15.48-10.68Q16.85-12.73 19.44-12.73L19.44-12.73Q20.57-12.73 21.51-12.32Q22.45-11.92 22.92-11.26Q23.39-10.61 23.58-9.70L23.58-9.70Q23.70-9.12 23.70-7.65L23.70-7.65L23.70 0L21.59 0L21.59-7.57Q21.59-8.86 21.34-9.50Q21.09-10.14 20.47-10.52Q19.84-10.90 19.00-10.90L19.00-10.90Q17.65-10.90 16.67-10.04Q15.69-9.19 15.69-6.80L15.69-6.80L15.69 0ZM26.14-6.22L26.14-6.22Q26.14-9.68 28.07-11.34L28.07-11.34Q29.67-12.73 31.98-12.73L31.98-12.73Q34.55-12.73 36.18-11.04Q37.80-9.36 37.80-6.40L37.80-6.40Q37.80-4.00 37.08-2.62Q36.36-1.24 34.99-0.48Q33.61 0.28 31.98 0.28L31.98 0.28Q29.37 0.28 27.76-1.39Q26.14-3.07 26.14-6.22ZM28.31-6.22L28.31-6.22Q28.31-3.83 29.36-2.64Q30.40-1.45 31.98-1.45L31.98-1.45Q33.55-1.45 34.59-2.65Q35.64-3.84 35.64-6.29L35.64-6.29Q35.64-8.60 34.59-9.79Q33.54-10.98 31.98-10.98L31.98-10.98Q30.40-10.98 29.36-9.80Q28.31-8.61 28.31-6.22ZM44.78 0L42.57 0L38.77-12.45L40.95-12.45L42.93-5.26L43.66-2.59Q43.71-2.79 44.31-5.16L44.31-5.16L46.29-12.45L48.46-12.45L50.32-5.23L50.94-2.85L51.66-5.25L53.79-12.45L55.84-12.45L51.95 0L49.76 0L47.78-7.45L47.30-9.57L44.78 0Z" fill="rgb(60,60,60)"/></g><g transform="translate(182.71,357.54) rotate(-4.1482144367471605) translate(-29.923828125,8.44921875)"><path d="M11.61 0L9.66 0L9.66-1.57Q8.47 0.28 6.18 0.28L6.18 0.28Q4.69 0.28 3.44-0.54Q2.19-1.36 1.51-2.83Q0.82-4.30 0.82-6.21L0.82-6.21Q0.82-8.07 1.44-9.59Q2.06-11.11 3.30-11.92Q4.55-12.73 6.08-12.73L6.08-12.73Q7.21-12.73 8.09-12.25Q8.96-11.78 9.52-11.02L9.52-11.02L9.52-17.18L11.61-17.18L11.61 0ZM2.99-6.21L2.99-6.21Q2.99-3.82 4.00-2.64Q5.00-1.45 6.38-1.45L6.38-1.45Q7.76-1.45 8.72-2.58Q9.69-3.71 9.69-6.04L9.69-6.04Q9.69-8.59 8.71-9.79Q7.72-10.98 6.28-10.98L6.28-10.98Q4.88-10.98 3.93-9.83Q2.99-8.68 2.99-6.21ZM14.14-6.22L14.14-6.22Q14.14-9.68 16.07-11.34L16.07-11.34Q17.67-12.73 19.98-12.73L19.98-12.73Q22.55-12.73 24.18-11.04Q25.80-9.36 25.80-6.40L25.80-6.40Q25.80-4.00 25.08-2.62Q24.36-1.24 22.99-0.48Q21.61 0.28 19.98 0.28L19.98 0.28Q17.37 0.28 15.76-1.39Q14.14-3.07 14.14-6.22ZM16.31-6.22L16.31-6.22Q16.31-3.83 17.36-2.64Q18.40-1.45 19.98-1.45L19.98-1.45Q21.55-1.45 22.59-2.65Q23.64-3.84 23.64-6.29L23.64-6.29Q23.64-8.60 22.59-9.79Q21.54-10.98 19.98-10.98L19.98-10.98Q18.40-10.98 17.36-9.80Q16.31-8.61 16.31-6.22ZM30.34 0L28.23 0L28.23-17.18L30.34-17.18L30.34 0ZM35.67 0L33.56 0L33.56-17.18L35.67-17.18L35.67 0ZM47.06-1.54L47.06-1.54Q45.89-0.54 44.81-0.13Q43.72 0.28 42.48 0.28L42.48 0.28Q40.43 0.28 39.33-0.72Q38.23-1.72 38.23-3.28L38.23-3.28Q38.23-4.20 38.64-4.95Q39.06-5.71 39.73-6.16Q40.41-6.62 41.25-6.86L41.25-6.86Q41.87-7.02 43.13-7.17L43.13-7.17Q45.68-7.48 46.89-7.90L46.89-7.90Q46.90-8.33 46.90-8.45L46.90-8.45Q46.90-9.74 46.30-10.27L46.30-10.27Q45.49-10.98 43.90-10.98L43.90-10.98Q42.41-10.98 41.70-10.46Q40.99-9.94 40.65-8.61L40.65-8.61L38.59-8.89Q38.87-10.22 39.52-11.03Q40.16-11.85 41.38-12.29Q42.60-12.73 44.20-12.73L44.20-12.73Q45.80-12.73 46.79-12.35Q47.79-11.98 48.26-11.41Q48.73-10.84 48.91-9.97L48.91-9.97Q49.02-9.43 49.02-8.03L49.02-8.03L49.02-5.21Q49.02-2.27 49.15-1.49Q49.29-0.71 49.69 0L49.69 0L47.48 0Q47.16-0.66 47.06-1.54ZM46.89-5.47L46.89-6.25Q45.74-5.78 43.44-5.45L43.44-5.45Q42.14-5.26 41.60-5.03Q41.06-4.79 40.77-4.34Q40.48-3.89 40.48-3.34L40.48-3.34Q40.48-2.50 41.12-1.93Q41.75-1.37 42.98-1.37L42.98-1.37Q44.20-1.37 45.15-1.90Q46.10-2.44 46.55-3.36L46.55-3.36Q46.89-4.08 46.89-5.47L46.89-5.47ZM54.38 0L52.27 0L52.27-12.45L54.16-12.45L54.16-10.56Q54.89-11.88 55.51-12.30Q56.12-12.73 56.86-12.73L56.86-12.73Q57.93-12.73 59.03-12.05L59.03-12.05L58.30-10.09Q57.53-10.55 56.75-10.55L56.75-10.55Q56.06-10.55 55.51-10.13Q54.96-9.71 54.73-8.98L54.73-8.98Q54.38-7.85 54.38-6.52L54.38-6.52L54.38 0Z" fill="rgb(16,16,16)"/></g><g transform="translate(300.91,359.83) rotate(-3.517960862103255) translate(-30.69140625,6.064453125)"><path d="M3.67 0L1.56 0L1.56-12.45L3.46-12.45L3.46-10.56Q4.18-11.88 4.80-12.30Q5.41-12.73 6.15-12.73L6.15-12.73Q7.22-12.73 8.32-12.05L8.32-12.05L7.59-10.09Q6.82-10.55 6.05-10.55L6.05-10.55Q5.36-10.55 4.80-10.13Q4.25-9.71 4.02-8.98L4.02-8.98Q3.67-7.85 3.67-6.52L3.67-6.52L3.67 0ZM18.09-4.01L18.09-4.01L20.27-3.74Q19.76-1.83 18.36-0.77Q16.97 0.28 14.80 0.28L14.80 0.28Q12.07 0.28 10.47-1.40Q8.87-3.08 8.87-6.12L8.87-6.12Q8.87-9.26 10.49-10.99Q12.11-12.73 14.68-12.73L14.68-12.73Q17.18-12.73 18.76-11.03Q20.34-9.33 20.34-6.25L20.34-6.25Q20.34-6.06 20.33-5.68L20.33-5.68L11.05-5.68Q11.17-3.63 12.21-2.54Q13.25-1.45 14.81-1.45L14.81-1.45Q15.97-1.45 16.79-2.06Q17.61-2.67 18.09-4.01ZM11.17-7.42L11.17-7.42L18.12-7.42Q17.98-8.99 17.32-9.77L17.32-9.77Q16.31-10.99 14.71-10.99L14.71-10.99Q13.25-10.99 12.26-10.02Q11.27-9.05 11.17-7.42ZM31.04-1.54L31.04-1.54Q29.87-0.54 28.79-0.13Q27.70 0.28 26.46 0.28L26.46 0.28Q24.41 0.28 23.31-0.72Q22.21-1.72 22.21-3.28L22.21-3.28Q22.21-4.20 22.62-4.95Q23.04-5.71 23.71-6.16Q24.39-6.62 25.23-6.86L25.23-6.86Q25.85-7.02 27.11-7.17L27.11-7.17Q29.66-7.48 30.87-7.90L30.87-7.90Q30.88-8.33 30.88-8.45L30.88-8.45Q30.88-9.74 30.28-10.27L30.28-10.27Q29.47-10.98 27.88-10.98L27.88-10.98Q26.39-10.98 25.68-10.46Q24.97-9.94 24.63-8.61L24.63-8.61L22.57-8.89Q22.85-10.22 23.50-11.03Q24.14-11.85 25.36-12.29Q26.58-12.73 28.18-12.73L28.18-12.73Q29.78-12.73 30.77-12.35Q31.77-11.98 32.24-11.41Q32.71-10.84 32.89-9.97L32.89-9.97Q33-9.43 33-8.03L33-8.03L33-5.21Q33-2.27 33.13-1.49Q33.27-0.71 33.67 0L33.67 0L31.46 0Q31.14-0.66 31.04-1.54ZM30.87-5.47L30.87-6.25Q29.72-5.78 27.42-5.45L27.42-5.45Q26.12-5.26 25.58-5.03Q25.04-4.79 24.75-4.34Q24.46-3.89 24.46-3.34L24.46-3.34Q24.46-2.50 25.10-1.93Q25.73-1.37 26.96-1.37L26.96-1.37Q28.18-1.37 29.13-1.90Q30.08-2.44 30.53-3.36L30.53-3.36Q30.87-4.08 30.87-5.47L30.87-5.47ZM46.30 0L44.34 0L44.34-1.57Q43.16 0.28 40.86 0.28L40.86 0.28Q39.38 0.28 38.13-0.54Q36.88-1.36 36.19-2.83Q35.51-4.30 35.51-6.21L35.51-6.21Q35.51-8.07 36.13-9.59Q36.75-11.11 37.99-11.92Q39.23-12.73 40.77-12.73L40.77-12.73Q41.89-12.73 42.77-12.25Q43.65-11.78 44.20-11.02L44.20-11.02L44.20-17.18L46.30-17.18L46.30 0ZM37.68-6.21L37.68-6.21Q37.68-3.82 38.68-2.64Q39.69-1.45 41.06-1.45L41.06-1.45Q42.45-1.45 43.41-2.58Q44.38-3.71 44.38-6.04L44.38-6.04Q44.38-8.59 43.39-9.79Q42.41-10.98 40.97-10.98L40.97-10.98Q39.56-10.98 38.62-9.83Q37.68-8.68 37.68-6.21ZM49.52 4.79L49.52 4.79L49.29 2.81Q49.98 3 50.50 3L50.50 3Q51.20 3 51.62 2.77Q52.04 2.53 52.31 2.11L52.31 2.11Q52.51 1.79 52.96 0.54L52.96 0.54Q53.02 0.36 53.14 0.02L53.14 0.02L48.42-12.45L50.70-12.45L53.29-5.24Q53.79-3.87 54.19-2.36L54.19-2.36Q54.55-3.81 55.05-5.19L55.05-5.19L57.71-12.45L59.82-12.45L55.09 0.21Q54.33 2.26 53.91 3.04L53.91 3.04Q53.34 4.08 52.62 4.56Q51.89 5.05 50.88 5.05L50.88 5.05Q50.27 5.05 49.52 4.79Z" fill="rgb(66,66,66)"/></g><g transform="translate(419,363.18) rotate(-3.804439759668666) translate(-24.978515625,6.064453125)"><path d="M3.68-14.73L1.57-14.73L1.57-17.18L3.68-17.18L3.68-14.73ZM-1.10 4.83L-1.10 4.83L-0.70 3.04Q-0.07 3.20 0.29 3.20L0.29 3.20Q0.94 3.20 1.25 2.77Q1.57 2.34 1.57 0.63L1.57 0.63L1.57-12.45L3.68-12.45L3.68 0.68Q3.68 2.98 3.08 3.88L3.08 3.88Q2.32 5.05 0.55 5.05L0.55 5.05Q-0.30 5.05-1.10 4.83ZM16.96 0L15.07 0L15.07-1.83Q13.62 0.28 11.12 0.28L11.12 0.28Q10.02 0.28 9.06-0.14Q8.11-0.56 7.65-1.20Q7.18-1.84 7.00-2.77L7.00-2.77Q6.87-3.39 6.87-4.73L6.87-4.73L6.87-12.45L8.98-12.45L8.98-5.54Q8.98-3.89 9.11-3.32L9.11-3.32Q9.30-2.48 9.95-2.01Q10.59-1.54 11.54-1.54L11.54-1.54Q12.49-1.54 13.32-2.02Q14.16-2.51 14.50-3.35Q14.85-4.18 14.85-5.78L14.85-5.78L14.85-12.45L16.96-12.45L16.96 0ZM22.37 0L20.26 0L20.26-12.45L22.15-12.45L22.15-10.70Q22.73-11.61 23.71-12.17Q24.68-12.73 25.92-12.73L25.92-12.73Q27.30-12.73 28.19-12.15Q29.07-11.58 29.44-10.55L29.44-10.55Q30.91-12.73 33.28-12.73L33.28-12.73Q35.13-12.73 36.13-11.70Q37.13-10.68 37.13-8.54L37.13-8.54L37.13 0L35.03 0L35.03-7.84Q35.03-9.11 34.82-9.66Q34.62-10.22 34.08-10.56Q33.54-10.90 32.81-10.90L32.81-10.90Q31.50-10.90 30.63-10.03Q29.77-9.15 29.77-7.23L29.77-7.23L29.77 0L27.66 0L27.66-8.09Q27.66-9.49 27.14-10.20Q26.63-10.90 25.45-10.90L25.45-10.90Q24.56-10.90 23.81-10.43Q23.05-9.96 22.71-9.06Q22.37-8.16 22.37-6.46L22.37-6.46L22.37 0ZM42.36 4.77L40.25 4.77L40.25-12.45L42.18-12.45L42.18-10.83Q42.86-11.78 43.71-12.25Q44.57-12.73 45.79-12.73L45.79-12.73Q47.38-12.73 48.60-11.91Q49.82-11.09 50.44-9.59Q51.06-8.10 51.06-6.32L51.06-6.32Q51.06-4.41 50.37-2.88Q49.69-1.35 48.38-0.53Q47.07 0.28 45.63 0.28L45.63 0.28Q44.58 0.28 43.74-0.16Q42.90-0.61 42.36-1.29L42.36-1.29L42.36 4.77ZM42.16-6.15L42.16-6.15Q42.16-3.75 43.14-2.60Q44.11-1.45 45.49-1.45L45.49-1.45Q46.90-1.45 47.90-2.64Q48.90-3.83 48.90-6.33L48.90-6.33Q48.90-8.71 47.92-9.89Q46.95-11.07 45.59-11.07L45.59-11.07Q44.24-11.07 43.20-9.81Q42.16-8.55 42.16-6.15Z" fill="rgb(34,34,34)"/></g><g transform="translate(544.92,355.03) rotate(3.7700622919608167) translate(-40.65234375,8.44921875)"><path d="M3.69 0L1.58 0L1.58-12.45L3.47-12.45L3.47-10.70Q4.05-11.61 5.03-12.17Q6-12.73 7.24-12.73L7.24-12.73Q8.63-12.73 9.51-12.15Q10.39-11.58 10.76-10.55L10.76-10.55Q12.23-12.73 14.60-12.73L14.60-12.73Q16.45-12.73 17.45-11.70Q18.45-10.68 18.45-8.54L18.45-8.54L18.45 0L16.35 0L16.35-7.84Q16.35-9.11 16.14-9.66Q15.94-10.22 15.40-10.56Q14.86-10.90 14.13-10.90L14.13-10.90Q12.82-10.90 11.95-10.03Q11.09-9.15 11.09-7.23L11.09-7.23L11.09 0L8.98 0L8.98-8.09Q8.98-9.49 8.46-10.20Q7.95-10.90 6.77-10.90L6.77-10.90Q5.88-10.90 5.13-10.43Q4.37-9.96 4.03-9.06Q3.69-8.16 3.69-6.46L3.69-6.46L3.69 0ZM20.79-6.22L20.79-6.22Q20.79-9.68 22.71-11.34L22.71-11.34Q24.32-12.73 26.63-12.73L26.63-12.73Q29.19-12.73 30.82-11.04Q32.45-9.36 32.45-6.40L32.45-6.40Q32.45-4.00 31.73-2.62Q31.01-1.24 29.63-0.48Q28.25 0.28 26.63 0.28L26.63 0.28Q24.01 0.28 22.40-1.39Q20.79-3.07 20.79-6.22ZM22.96-6.22L22.96-6.22Q22.96-3.83 24-2.64Q25.04-1.45 26.63-1.45L26.63-1.45Q28.20-1.45 29.24-2.65Q30.28-3.84 30.28-6.29L30.28-6.29Q30.28-8.60 29.23-9.79Q28.18-10.98 26.63-10.98L26.63-10.98Q25.04-10.98 24-9.80Q22.96-8.61 22.96-6.22ZM44.95 0L43.00 0L43.00-1.57Q41.81 0.28 39.52 0.28L39.52 0.28Q38.03 0.28 36.78-0.54Q35.53-1.36 34.85-2.83Q34.16-4.30 34.16-6.21L34.16-6.21Q34.16-8.07 34.78-9.59Q35.40-11.11 36.64-11.92Q37.89-12.73 39.42-12.73L39.42-12.73Q40.55-12.73 41.43-12.25Q42.30-11.78 42.86-11.02L42.86-11.02L42.86-17.18L44.95-17.18L44.95 0ZM36.33-6.21L36.33-6.21Q36.33-3.82 37.34-2.64Q38.34-1.45 39.71-1.45L39.71-1.45Q41.10-1.45 42.06-2.58Q43.03-3.71 43.03-6.04L43.03-6.04Q43.03-8.59 42.05-9.79Q41.06-10.98 39.62-10.98L39.62-10.98Q38.21-10.98 37.27-9.83Q36.33-8.68 36.33-6.21ZM56.79-4.01L56.79-4.01L58.97-3.74Q58.45-1.83 57.06-0.77Q55.66 0.28 53.50 0.28L53.50 0.28Q50.77 0.28 49.17-1.40Q47.57-3.08 47.57-6.12L47.57-6.12Q47.57-9.26 49.18-10.99Q50.80-12.73 53.38-12.73L53.38-12.73Q55.88-12.73 57.46-11.03Q59.04-9.33 59.04-6.25L59.04-6.25Q59.04-6.06 59.03-5.68L59.03-5.68L49.75-5.68Q49.86-3.63 50.91-2.54Q51.95-1.45 53.51-1.45L53.51-1.45Q54.67-1.45 55.49-2.06Q56.31-2.67 56.79-4.01ZM49.86-7.42L49.86-7.42L56.81-7.42Q56.67-8.99 56.02-9.77L56.02-9.77Q55.01-10.99 53.40-10.99L53.40-10.99Q51.95-10.99 50.96-10.02Q49.97-9.05 49.86-7.42ZM63.70 0L61.59 0L61.59-12.45L63.49-12.45L63.49-10.56Q64.22-11.88 64.83-12.30Q65.45-12.73 66.19-12.73L66.19-12.73Q67.25-12.73 68.36-12.05L68.36-12.05L67.63-10.09Q66.86-10.55 66.08-10.55L66.08-10.55Q65.39-10.55 64.84-10.13Q64.29-9.71 64.05-8.98L64.05-8.98Q63.70-7.85 63.70-6.52L63.70-6.52L63.70 0ZM71.72 0L69.61 0L69.61-12.45L71.51-12.45L71.51-10.68Q72.88-12.73 75.47-12.73L75.47-12.73Q76.59-12.73 77.54-12.32Q78.48-11.92 78.95-11.26Q79.42-10.61 79.61-9.70L79.61-9.70Q79.72-9.12 79.72-7.65L79.72-7.65L79.72 0L77.61 0L77.61-7.57Q77.61-8.86 77.37-9.50Q77.12-10.14 76.49-10.52Q75.87-10.90 75.02-10.90L75.02-10.90Q73.68-10.90 72.70-10.04Q71.72-9.19 71.72-6.80L71.72-6.80L71.72 0Z" fill="rgb(11,11,11)"/></g><rect x="275" y="29" width="2" height="2" fill="rgba(136,248,135,0.1)"/><rect x="354" y="219" width="2" height="2" fill="rgba(0,66,3,0.1)"/><rect x="131" y="112" width="2" height="2" fill="rgba(141,172,87,0.1)"/><rect x="519" y="354" width="2" height="2" fill="rgba(228,253,59,0.1)"/><rect x="91" y="278" width="2" height="2" fill="rgba(202,200,138,0.1)"/><rect x="131" y="172" width="2" height="2" fill="rgba(131,182,28,0.1)"/><rect x="87" y="346" width="2" height="2" fill="rgba(31,182,24,0.1)"/><rect x="541" y="243" width="2" height="2" fill="rgba(119,76,2,0.1)"/><rect x="208" y="260" width="2" height="2" fill="rgba(170,249,122,0.1)"/><rect x="230" y="98" width="2" height="2" fill="rgba(4,101,176,0.1)"/><rect x="62" y="396" width="2" height="2" fill="rgba(161,126,164,0.1)"/><rect x="62" y="71" width="2" height="2" fill="rgba(80,107,27,0.1)"/><rect x="495" y="128" width="2" height="2" fill="rgba(99,229,59,0.1)"/><rect x="248" y="356" width="2" height="2" fill="rgba(115,187,86,0.1)"/><rect x="528" y="338" width="2" height="2" fill="rgba(70,166,55,0.1)"/><rect x="35" y="99" width="2" height="2" fill="rgba(127,13,2,0.1)"/><rect x="4" y="99" width="2" height="2" fill="rgba(65,109,33,0.1)"/><rect x="428" y="155" width="2" height="2" fill="rgba(228,144,60,0.1)"/><rect x="286" y="83" width="2" height="2" fill="rgba(71,11,36,0.1)"/><rect x="294" y="98" width="2" height="2" fill="rgba(195,131,220,0.1)"/><rect x="178" y="364" width="2" height="2" fill="rgba(233,8,249,0.1)"/><rect x="371" y="280" width="2" height="2" fill="rgba(62,41,78,0.1)"/><rect x="258" y="9" width="2" height="2" fill="rgba(162,102,169,0.1)"/><rect x="135" y="75" width="2" height="2" fill="rgba(8,97,15,0.1)"/><rect x="461" y="197" width="2" height="2" fill="rgba(5,29,192,0.1)"/><rect x="468" y="129" width="2" height="2" fill="rgba(151,16,148,0.1)"/><rect x="272" y="240" width="2" height="2" fill="rgba(42,84,71,0.1)"/><rect x="510" y="256" width="2" height="2" fill="rgba(113,173,210,0.1)"/><rect x="258" y="98" width="2" height="2" fill="rgba(71,102,93,0.1)"/><rect x="187" y="256" width="2" height="2" fill="rgba(49,200,215,0.1)"/><rect x="403" y="281" width="2" height="2" fill="rgba(40,48,152,0.1)"/><rect x="266" y="68" width="2" height="2" fill="rgba(156,205,139,0.1)"/><rect x="599" y="63" width="2" height="2" fill="rgba(27,156,139,0.1)"/><rect x="10" y="46" width="2" height="2" fill="rgba(78,178,9,0.1)"/><rect x="144" y="97" width="2" height="2" fill="rgba(196,75,42,0.1)"/><rect x="562" y="79" width="2" height="2" fill="rgba(164,39,182,0.1)"/><rect x="343" y="343" width="2" height="2" fill="rgba(18,62,2,0.1)"/><rect x="392" y="146" width="2" height="2" fill="rgba(255,235,138,0.1)"/><rect x="374" y="220" width="2" height="2" fill="rgba(146,106,160,0.1)"/><rect x="479" y="214" width="2" height="2" fill="rgba(39,75,216,0.1)"/><rect x="200" y="67" width="2" height="2" fill="rgba(254,100,134,0.1)"/><rect x="256" y="161" width="2" height="2" fill="rgba(246,228,236,0.1)"/><rect x="557" y="72" width="2" height="2" fill="rgba(248,21,113,0.1)"/><rect x="261" y="209" width="2" height="2" fill="rgba(143,91,171,0.1)"/><rect x="498" y="267" width="2" height="2" fill="rgba(0,128,87,0.1)"/><rect x="372" y="345" width="2" height="2" fill="rgba(146,213,77,0.1)"/><rect x="545" y="268" width="2" height="2" fill="rgba(128,37,115,0.1)"/><rect x="304" y="125" width="2" height="2" fill="rgba(245,67,249,0.1)"/><rect x="161" y="390" width="2" height="2" fill="rgba(162,174,28,0.1)"/><rect x="186" y="314" width="2" height="2" fill="rgba(159,214,23,0.1)"/></svg>